<svg width="800" height="400" viewBox="0 0 800 400" fill="none" xmlns="http://www.w3.org/2000/svg">
<rect width="800" height="400" fill="#1E1E1E"/>
<rect width="800" height="400" fill="white"/>
<rect x="27.5" y="17.5" width="194" height="123" rx="3.5" stroke="black" stroke-width="3"/>
<path d="M89.8267 111H87.4972L92.7315 96.4545H95.267L100.501 111H98.1719L94.0597 99.0966H93.946L89.8267 111ZM90.2173 105.304H97.7741V107.151H90.2173V105.304ZM102.431 111V100.091H104.47V101.866H104.605C104.832 101.265 105.204 100.796 105.72 100.46C106.236 100.119 106.854 99.9489 107.574 99.9489C108.303 99.9489 108.913 100.119 109.406 100.46C109.903 100.801 110.27 101.27 110.507 101.866H110.62C110.881 101.284 111.295 100.82 111.863 100.474C112.431 100.124 113.109 99.9489 113.895 99.9489C114.884 99.9489 115.691 100.259 116.316 100.879C116.946 101.5 117.261 102.435 117.261 103.685V111H115.137V103.884C115.137 103.145 114.936 102.61 114.534 102.278C114.131 101.947 113.651 101.781 113.092 101.781C112.401 101.781 111.863 101.994 111.48 102.42C111.096 102.842 110.904 103.384 110.904 104.047V111H108.788V103.749C108.788 103.157 108.603 102.681 108.234 102.321C107.865 101.961 107.384 101.781 106.792 101.781C106.39 101.781 106.018 101.888 105.677 102.101C105.341 102.309 105.069 102.6 104.86 102.974C104.657 103.348 104.555 103.782 104.555 104.274V111H102.431ZM124.702 111.22C123.68 111.22 122.787 110.986 122.025 110.517C121.263 110.048 120.671 109.393 120.249 108.55C119.828 107.707 119.617 106.722 119.617 105.595C119.617 104.464 119.828 103.474 120.249 102.626C120.671 101.779 121.263 101.121 122.025 100.652C122.787 100.183 123.68 99.9489 124.702 99.9489C125.725 99.9489 126.618 100.183 127.38 100.652C128.142 101.121 128.734 101.779 129.156 102.626C129.577 103.474 129.788 104.464 129.788 105.595C129.788 106.722 129.577 107.707 129.156 108.55C128.734 109.393 128.142 110.048 127.38 110.517C126.618 110.986 125.725 111.22 124.702 111.22ZM124.71 109.438C125.372 109.438 125.922 109.262 126.357 108.912C126.793 108.562 127.115 108.095 127.323 107.513C127.536 106.93 127.643 106.289 127.643 105.588C127.643 104.892 127.536 104.253 127.323 103.67C127.115 103.083 126.793 102.612 126.357 102.257C125.922 101.902 125.372 101.724 124.71 101.724C124.042 101.724 123.488 101.902 123.048 102.257C122.612 102.612 122.288 103.083 122.075 103.67C121.866 104.253 121.762 104.892 121.762 105.588C121.762 106.289 121.866 106.93 122.075 107.513C122.288 108.095 122.612 108.562 123.048 108.912C123.488 109.262 124.042 109.438 124.71 109.438ZM139.069 106.476V100.091H141.199V111H139.111V109.111H138.998C138.747 109.693 138.344 110.179 137.79 110.567C137.241 110.95 136.557 111.142 135.738 111.142C135.037 111.142 134.417 110.988 133.877 110.68C133.342 110.368 132.92 109.906 132.613 109.295C132.31 108.685 132.158 107.929 132.158 107.03V100.091H134.282V106.774C134.282 107.518 134.488 108.109 134.9 108.55C135.311 108.99 135.846 109.21 136.505 109.21C136.902 109.21 137.298 109.111 137.691 108.912C138.088 108.713 138.417 108.412 138.678 108.01C138.943 107.607 139.073 107.096 139.069 106.476ZM146.176 104.523V111H144.053V100.091H146.091V101.866H146.226C146.477 101.289 146.87 100.825 147.405 100.474C147.945 100.124 148.624 99.9489 149.443 99.9489C150.187 99.9489 150.838 100.105 151.396 100.418C151.955 100.725 152.388 101.185 152.696 101.795C153.004 102.406 153.158 103.161 153.158 104.061V111H151.034V104.317C151.034 103.526 150.828 102.908 150.416 102.463C150.004 102.013 149.438 101.788 148.719 101.788C148.226 101.788 147.788 101.895 147.405 102.108C147.026 102.321 146.725 102.634 146.503 103.045C146.285 103.453 146.176 103.945 146.176 104.523ZM161.098 100.091V101.795H155.139V100.091H161.098ZM156.737 97.4773H158.861V107.797C158.861 108.209 158.922 108.519 159.045 108.727C159.169 108.931 159.327 109.071 159.521 109.146C159.72 109.217 159.936 109.253 160.168 109.253C160.338 109.253 160.487 109.241 160.615 109.217C160.743 109.194 160.842 109.175 160.913 109.161L161.297 110.915C161.174 110.962 160.999 111.009 160.771 111.057C160.544 111.109 160.26 111.137 159.919 111.142C159.36 111.152 158.839 111.052 158.357 110.844C157.874 110.635 157.483 110.313 157.185 109.878C156.886 109.442 156.737 108.895 156.737 108.237V97.4773Z" fill="black"/>
<path d="M97.9773 61.9091C97.9773 64.7301 97.4489 67.1463 96.392 69.1577C95.3438 71.1605 93.9119 72.6946 92.0966 73.7599C90.2898 74.8253 88.2401 75.358 85.9474 75.358C83.6548 75.358 81.6009 74.8253 79.7855 73.7599C77.9787 72.6861 76.5469 71.1477 75.4901 69.1449C74.4418 67.1335 73.9176 64.7216 73.9176 61.9091C73.9176 59.0881 74.4418 56.6761 75.4901 54.6733C76.5469 52.6619 77.9787 51.1236 79.7855 50.0582C81.6009 48.9929 83.6548 48.4602 85.9474 48.4602C88.2401 48.4602 90.2898 48.9929 92.0966 50.0582C93.9119 51.1236 95.3438 52.6619 96.392 54.6733C97.4489 56.6761 97.9773 59.0881 97.9773 61.9091ZM93.2088 61.9091C93.2088 59.9233 92.8977 58.2486 92.2756 56.8849C91.6619 55.5128 90.8097 54.4773 89.7188 53.7784C88.6278 53.071 87.3707 52.7173 85.9474 52.7173C84.5241 52.7173 83.267 53.071 82.1761 53.7784C81.0852 54.4773 80.2287 55.5128 79.6065 56.8849C78.9929 58.2486 78.6861 59.9233 78.6861 61.9091C78.6861 63.8949 78.9929 65.5739 79.6065 66.946C80.2287 68.3097 81.0852 69.3452 82.1761 70.0526C83.267 70.7514 84.5241 71.1009 85.9474 71.1009C87.3707 71.1009 88.6278 70.7514 89.7188 70.0526C90.8097 69.3452 91.6619 68.3097 92.2756 66.946C92.8977 65.5739 93.2088 63.8949 93.2088 61.9091ZM102.257 75V55.3636H106.744V58.6364H106.949C107.306 57.5028 107.92 56.6293 108.789 56.0156C109.667 55.3935 110.669 55.0824 111.794 55.0824C112.049 55.0824 112.335 55.0952 112.65 55.1207C112.974 55.1378 113.243 55.1676 113.456 55.2102V59.4673C113.26 59.3991 112.949 59.3395 112.522 59.2884C112.105 59.2287 111.7 59.1989 111.308 59.1989C110.464 59.1989 109.706 59.3821 109.032 59.7486C108.368 60.1065 107.843 60.6051 107.46 61.2443C107.076 61.8835 106.885 62.6207 106.885 63.456V75H102.257ZM116.53 75V55.3636H121.158V75H116.53ZM118.857 52.5767C118.124 52.5767 117.493 52.3338 116.965 51.848C116.436 51.3537 116.172 50.7614 116.172 50.071C116.172 49.3722 116.436 48.7798 116.965 48.294C117.493 47.7997 118.124 47.5526 118.857 47.5526C119.598 47.5526 120.229 47.7997 120.749 48.294C121.277 48.7798 121.542 49.3722 121.542 50.071C121.542 50.7614 121.277 51.3537 120.749 51.848C120.229 52.3338 119.598 52.5767 118.857 52.5767ZM134.457 82.7727C132.795 82.7727 131.367 82.5469 130.174 82.0952C128.981 81.652 128.022 81.0554 127.298 80.3054C126.573 79.5554 126.07 78.7244 125.789 77.8125L129.957 76.8026C130.144 77.1861 130.417 77.5653 130.775 77.9403C131.133 78.3239 131.614 78.6392 132.219 78.8864C132.833 79.142 133.604 79.2699 134.533 79.2699C135.846 79.2699 136.933 78.9503 137.793 78.3111C138.654 77.6804 139.085 76.6406 139.085 75.1918V71.4716H138.854C138.616 71.9489 138.266 72.4389 137.806 72.9418C137.354 73.4446 136.754 73.8665 136.004 74.2074C135.262 74.5483 134.329 74.7188 133.204 74.7188C131.695 74.7188 130.327 74.3651 129.1 73.6577C127.881 72.9418 126.91 71.8764 126.185 70.4616C125.469 69.0384 125.112 67.2571 125.112 65.1179C125.112 62.9616 125.469 61.142 126.185 59.6591C126.91 58.1676 127.886 57.0384 129.113 56.2713C130.34 55.4957 131.708 55.108 133.217 55.108C134.367 55.108 135.313 55.304 136.055 55.696C136.805 56.0795 137.401 56.544 137.844 57.0895C138.288 57.6264 138.624 58.1335 138.854 58.6108H139.11V55.3636H143.674V75.3196C143.674 76.9986 143.273 78.3878 142.472 79.4872C141.671 80.5866 140.576 81.4091 139.187 81.9545C137.798 82.5 136.221 82.7727 134.457 82.7727ZM134.495 71.0881C135.475 71.0881 136.31 70.8494 137.001 70.3722C137.691 69.8949 138.215 69.2088 138.573 68.3139C138.931 67.419 139.11 66.3452 139.11 65.0923C139.11 63.8565 138.931 62.7741 138.573 61.8452C138.224 60.9162 137.704 60.196 137.013 59.6847C136.332 59.1648 135.492 58.9048 134.495 58.9048C133.464 58.9048 132.603 59.1733 131.913 59.7102C131.222 60.2472 130.702 60.9844 130.353 61.9219C130.004 62.8509 129.829 63.9077 129.829 65.0923C129.829 66.294 130.004 67.3466 130.353 68.25C130.711 69.1449 131.235 69.8437 131.925 70.3466C132.624 70.8409 133.481 71.0881 134.495 71.0881ZM148.417 75V55.3636H153.045V75H148.417ZM150.744 52.5767C150.011 52.5767 149.38 52.3338 148.852 51.848C148.323 51.3537 148.059 50.7614 148.059 50.071C148.059 49.3722 148.323 48.7798 148.852 48.294C149.38 47.7997 150.011 47.5526 150.744 47.5526C151.485 47.5526 152.116 47.7997 152.636 48.294C153.164 48.7798 153.428 49.3722 153.428 50.071C153.428 50.7614 153.164 51.3537 152.636 51.848C152.116 52.3338 151.485 52.5767 150.744 52.5767ZM162.431 63.4943V75H157.804V55.3636H162.227V58.7003H162.457C162.909 57.6009 163.629 56.7273 164.618 56.0795C165.615 55.4318 166.846 55.108 168.312 55.108C169.667 55.108 170.848 55.3977 171.853 55.9773C172.868 56.5568 173.652 57.3963 174.206 58.4957C174.768 59.5952 175.045 60.929 175.037 62.4972V75H170.409V63.2131C170.409 61.9006 170.068 60.8736 169.386 60.1321C168.713 59.3906 167.779 59.0199 166.586 59.0199C165.777 59.0199 165.056 59.1989 164.426 59.5568C163.804 59.9062 163.314 60.4134 162.956 61.0781C162.606 61.7429 162.431 62.5483 162.431 63.4943Z" fill="black"/>
<rect x="24.5" y="264.5" width="194" height="123" rx="3.5" stroke="black" stroke-width="3"/>
<path d="M37.544 356H35.4474L40.1584 342.909H42.4403L47.1513 356H45.0547L41.3537 345.287H41.2514L37.544 356ZM37.8956 350.874H44.6967V352.536H37.8956V350.874ZM48.8883 356V346.182H50.7228V347.78H50.8443C51.0488 347.239 51.3833 346.817 51.8478 346.514C52.3123 346.207 52.8684 346.054 53.5162 346.054C54.1724 346.054 54.7221 346.207 55.1653 346.514C55.6127 346.821 55.943 347.243 56.1561 347.78H56.2583C56.4927 347.256 56.8656 346.838 57.377 346.527C57.8883 346.212 58.4977 346.054 59.2051 346.054C60.0957 346.054 60.8223 346.333 61.3848 346.891C61.9515 347.45 62.2349 348.291 62.2349 349.416V356H60.3237V349.595C60.3237 348.93 60.1426 348.449 59.7804 348.151C59.4181 347.852 58.9856 347.703 58.4828 347.703C57.8606 347.703 57.377 347.895 57.0318 348.278C56.6866 348.658 56.514 349.146 56.514 349.742V356H54.6092V349.474C54.6092 348.941 54.443 348.513 54.1106 348.189C53.7782 347.865 53.3457 347.703 52.813 347.703C52.4508 347.703 52.1163 347.799 51.8095 347.991C51.5069 348.178 51.2619 348.44 51.0744 348.777C50.8912 349.114 50.7995 349.504 50.7995 349.947V356H48.8883ZM68.9322 356.198C68.0117 356.198 67.2085 355.987 66.5224 355.565C65.8363 355.143 65.3036 354.553 64.9244 353.795C64.5451 353.036 64.3555 352.15 64.3555 351.136C64.3555 350.117 64.5451 349.227 64.9244 348.464C65.3036 347.701 65.8363 347.109 66.5224 346.687C67.2085 346.265 68.0117 346.054 68.9322 346.054C69.8526 346.054 70.6559 346.265 71.342 346.687C72.0281 347.109 72.5607 347.701 72.94 348.464C73.3192 349.227 73.5089 350.117 73.5089 351.136C73.5089 352.15 73.3192 353.036 72.94 353.795C72.5607 354.553 72.0281 355.143 71.342 355.565C70.6559 355.987 69.8526 356.198 68.9322 356.198ZM68.9386 354.594C69.5352 354.594 70.0295 354.436 70.4215 354.121C70.8136 353.805 71.1033 353.386 71.2908 352.862C71.4826 352.337 71.5785 351.76 71.5785 351.129C71.5785 350.503 71.4826 349.928 71.2908 349.403C71.1033 348.875 70.8136 348.451 70.4215 348.131C70.0295 347.812 69.5352 347.652 68.9386 347.652C68.3377 347.652 67.8391 347.812 67.4428 348.131C67.0508 348.451 66.7589 348.875 66.5671 349.403C66.3796 349.928 66.2859 350.503 66.2859 351.129C66.2859 351.76 66.3796 352.337 66.5671 352.862C66.7589 353.386 67.0508 353.805 67.4428 354.121C67.8391 354.436 68.3377 354.594 68.9386 354.594ZM81.8617 351.928V346.182H83.7793V356H81.9V354.3H81.7978C81.5719 354.824 81.2097 355.261 80.7111 355.61C80.2168 355.955 79.601 356.128 78.8638 356.128C78.2331 356.128 77.6749 355.989 77.1891 355.712C76.7076 355.431 76.3283 355.016 76.0513 354.466C75.7786 353.916 75.6422 353.237 75.6422 352.427V346.182H77.5534V352.197C77.5534 352.866 77.7388 353.398 78.1096 353.795C78.4803 354.191 78.9618 354.389 79.5542 354.389C79.9121 354.389 80.2679 354.3 80.6216 354.121C80.9796 353.942 81.2757 353.671 81.5101 353.309C81.7488 352.947 81.8659 352.487 81.8617 351.928ZM88.2585 350.17V356H86.3473V346.182H88.1818V347.78H88.3033C88.5291 347.26 88.8828 346.842 89.3643 346.527C89.8501 346.212 90.4616 346.054 91.1989 346.054C91.8679 346.054 92.4538 346.195 92.9567 346.476C93.4595 346.753 93.8494 347.166 94.1264 347.716C94.4034 348.266 94.5419 348.945 94.5419 349.755V356H92.6307V349.985C92.6307 349.273 92.4453 348.717 92.0746 348.317C91.7038 347.912 91.1946 347.71 90.5469 347.71C90.1037 347.71 89.7095 347.805 89.3643 347.997C89.0234 348.189 88.7528 348.47 88.5526 348.841C88.3565 349.207 88.2585 349.651 88.2585 350.17ZM101.688 346.182V347.716H96.3253V346.182H101.688ZM97.7635 343.83H99.6747V353.117C99.6747 353.488 99.7301 353.767 99.8409 353.955C99.9517 354.138 100.094 354.263 100.269 354.332C100.448 354.396 100.642 354.428 100.851 354.428C101.004 354.428 101.138 354.417 101.254 354.396C101.369 354.374 101.458 354.357 101.522 354.344L101.867 355.923C101.756 355.966 101.599 356.009 101.394 356.051C101.19 356.098 100.934 356.124 100.627 356.128C100.124 356.136 99.6555 356.047 99.2209 355.859C98.7862 355.672 98.4347 355.382 98.1662 354.99C97.8977 354.598 97.7635 354.106 97.7635 353.513V343.83ZM114.351 348.624V350.286H108.547V348.624H114.351ZM121.815 356V342.909H129.933V344.609H123.79V348.598H129.351V350.292H123.79V356H121.815ZM135.719 356.198C134.752 356.198 133.919 355.991 133.22 355.578C132.526 355.161 131.989 354.575 131.609 353.82C131.234 353.062 131.047 352.173 131.047 351.155C131.047 350.149 131.234 349.263 131.609 348.496C131.989 347.729 132.517 347.13 133.195 346.7C133.876 346.269 134.673 346.054 135.585 346.054C136.139 346.054 136.676 346.146 137.196 346.329C137.716 346.512 138.183 346.8 138.596 347.192C139.009 347.584 139.335 348.093 139.574 348.719C139.813 349.342 139.932 350.098 139.932 350.989V351.666H132.127V350.234H138.059C138.059 349.732 137.957 349.286 137.752 348.898C137.548 348.506 137.26 348.197 136.889 347.972C136.523 347.746 136.092 347.633 135.598 347.633C135.061 347.633 134.592 347.765 134.192 348.029C133.795 348.289 133.489 348.63 133.271 349.052C133.058 349.469 132.952 349.923 132.952 350.413V351.532C132.952 352.188 133.067 352.746 133.297 353.207C133.531 353.667 133.857 354.018 134.275 354.261C134.692 354.5 135.18 354.619 135.739 354.619C136.101 354.619 136.431 354.568 136.729 354.466C137.028 354.359 137.286 354.202 137.503 353.993C137.72 353.784 137.886 353.526 138.001 353.219L139.81 353.545C139.665 354.078 139.406 354.545 139.031 354.945C138.66 355.342 138.193 355.651 137.631 355.872C137.072 356.089 136.435 356.198 135.719 356.198ZM146.284 356.198C145.317 356.198 144.483 355.991 143.785 355.578C143.09 355.161 142.553 354.575 142.174 353.82C141.799 353.062 141.611 352.173 141.611 351.155C141.611 350.149 141.799 349.263 142.174 348.496C142.553 347.729 143.081 347.13 143.759 346.7C144.441 346.269 145.238 346.054 146.15 346.054C146.704 346.054 147.241 346.146 147.76 346.329C148.28 346.512 148.747 346.8 149.16 347.192C149.574 347.584 149.9 348.093 150.138 348.719C150.377 349.342 150.496 350.098 150.496 350.989V351.666H142.692V350.234H148.623C148.623 349.732 148.521 349.286 148.317 348.898C148.112 348.506 147.824 348.197 147.454 347.972C147.087 347.746 146.657 347.633 146.162 347.633C145.626 347.633 145.157 347.765 144.756 348.029C144.36 348.289 144.053 348.63 143.836 349.052C143.623 349.469 143.516 349.923 143.516 350.413V351.532C143.516 352.188 143.631 352.746 143.861 353.207C144.096 353.667 144.422 354.018 144.839 354.261C145.257 354.5 145.745 354.619 146.303 354.619C146.665 354.619 146.996 354.568 147.294 354.466C147.592 354.359 147.85 354.202 148.067 353.993C148.285 353.784 148.451 353.526 148.566 353.219L150.375 353.545C150.23 354.078 149.97 354.545 149.595 354.945C149.224 355.342 148.758 355.651 148.195 355.872C147.637 356.089 147 356.198 146.284 356.198ZM155.333 350.273L155.455 347.575L153.179 349.039L152.483 347.825L154.899 346.591L152.483 345.357L153.179 344.143L155.455 345.607L155.333 342.909H156.721L156.599 345.607L158.875 344.143L159.571 345.357L157.155 346.591L159.571 347.825L158.875 349.039L156.599 347.575L156.721 350.273H155.333ZM162.56 349.455C162.56 347.852 162.771 346.378 163.192 345.031C163.614 343.685 164.23 342.442 165.04 341.305H166.791C166.476 341.727 166.182 342.244 165.909 342.858C165.636 343.472 165.398 344.145 165.193 344.878C164.989 345.607 164.829 346.363 164.714 347.147C164.599 347.927 164.541 348.696 164.541 349.455C164.541 350.469 164.641 351.496 164.842 352.536C165.042 353.575 165.313 354.54 165.653 355.431C165.994 356.322 166.374 357.048 166.791 357.611H165.04C164.23 356.473 163.614 355.231 163.192 353.884C162.771 352.538 162.56 351.061 162.56 349.455ZM179.526 342.909V356H177.71L171.056 346.399H170.935V356H168.96V342.909H170.788L177.448 352.523H177.57V342.909H179.526ZM186.102 353.801V345.159H187.821V353.801H186.102ZM182.643 350.337V348.624H191.286V350.337H182.643ZM199.183 342.909V356H197.201V344.891H197.125L193.993 346.936V345.044L197.259 342.909H199.183ZM206.425 349.455C206.425 351.061 206.214 352.538 205.792 353.884C205.37 355.231 204.755 356.473 203.945 357.611H202.194C202.509 357.189 202.803 356.671 203.076 356.058C203.348 355.444 203.587 354.773 203.792 354.044C203.996 353.311 204.156 352.553 204.271 351.768C204.386 350.984 204.444 350.213 204.444 349.455C204.444 348.445 204.343 347.42 204.143 346.38C203.943 345.34 203.672 344.375 203.331 343.484C202.99 342.594 202.611 341.867 202.194 341.305H203.945C204.755 342.442 205.37 343.685 205.792 345.031C206.214 346.378 206.425 347.852 206.425 349.455Z" fill="black"/>
<path d="M66.4318 299.794V295.818H87.321V299.794H79.2287V322H74.5241V299.794H66.4318ZM94.1222 322.396C92.8778 322.396 91.7571 322.175 90.7599 321.732C89.7713 321.28 88.9872 320.615 88.4077 319.737C87.8366 318.859 87.5511 317.777 87.5511 316.49C87.5511 315.382 87.7557 314.466 88.1648 313.741C88.5739 313.017 89.1321 312.438 89.8395 312.003C90.5469 311.568 91.3438 311.24 92.2301 311.018C93.125 310.788 94.0497 310.622 95.0043 310.52C96.1548 310.401 97.0881 310.294 97.804 310.2C98.5199 310.098 99.0398 309.945 99.3636 309.74C99.696 309.527 99.8622 309.199 99.8622 308.756V308.679C99.8622 307.716 99.5767 306.97 99.0057 306.442C98.4347 305.913 97.6122 305.649 96.5384 305.649C95.4048 305.649 94.5057 305.896 93.8409 306.391C93.1847 306.885 92.7415 307.469 92.5114 308.142L88.1903 307.528C88.5313 306.335 89.0938 305.338 89.8778 304.537C90.6619 303.727 91.6207 303.122 92.7543 302.722C93.8878 302.312 95.1406 302.108 96.5128 302.108C97.4588 302.108 98.4006 302.219 99.3381 302.44C100.276 302.662 101.132 303.028 101.908 303.54C102.683 304.043 103.305 304.729 103.774 305.598C104.251 306.467 104.49 307.554 104.49 308.858V322H100.041V319.303H99.8878C99.6065 319.848 99.2102 320.359 98.6989 320.837C98.196 321.305 97.5611 321.685 96.794 321.974C96.0355 322.256 95.1449 322.396 94.1222 322.396ZM95.3239 318.996C96.2528 318.996 97.0582 318.812 97.7401 318.446C98.4219 318.071 98.946 317.577 99.3125 316.963C99.6875 316.349 99.875 315.68 99.875 314.956V312.642C99.7301 312.761 99.483 312.872 99.1335 312.974C98.7926 313.077 98.4091 313.166 97.983 313.243C97.5568 313.32 97.1349 313.388 96.7173 313.447C96.2997 313.507 95.9375 313.558 95.6307 313.601C94.9403 313.695 94.3224 313.848 93.777 314.061C93.2315 314.274 92.8011 314.572 92.4858 314.956C92.1705 315.331 92.0128 315.817 92.0128 316.413C92.0128 317.266 92.3239 317.909 92.946 318.344C93.5682 318.778 94.3608 318.996 95.3239 318.996ZM109.143 322V302.364H113.631V305.636H113.835C114.193 304.503 114.807 303.629 115.676 303.016C116.554 302.393 117.555 302.082 118.68 302.082C118.936 302.082 119.222 302.095 119.537 302.121C119.861 302.138 120.129 302.168 120.342 302.21V306.467C120.146 306.399 119.835 306.339 119.409 306.288C118.991 306.229 118.587 306.199 118.195 306.199C117.351 306.199 116.592 306.382 115.919 306.749C115.254 307.107 114.73 307.605 114.347 308.244C113.963 308.884 113.771 309.621 113.771 310.456V322H109.143ZM131.148 329.773C129.486 329.773 128.059 329.547 126.865 329.095C125.672 328.652 124.713 328.055 123.989 327.305C123.265 326.555 122.762 325.724 122.48 324.812L126.648 323.803C126.836 324.186 127.108 324.565 127.466 324.94C127.824 325.324 128.306 325.639 128.911 325.886C129.525 326.142 130.296 326.27 131.225 326.27C132.537 326.27 133.624 325.95 134.485 325.311C135.346 324.68 135.776 323.641 135.776 322.192V318.472H135.546C135.307 318.949 134.958 319.439 134.498 319.942C134.046 320.445 133.445 320.866 132.695 321.207C131.953 321.548 131.02 321.719 129.895 321.719C128.387 321.719 127.019 321.365 125.792 320.658C124.573 319.942 123.601 318.876 122.877 317.462C122.161 316.038 121.803 314.257 121.803 312.118C121.803 309.962 122.161 308.142 122.877 306.659C123.601 305.168 124.577 304.038 125.804 303.271C127.032 302.496 128.4 302.108 129.908 302.108C131.059 302.108 132.005 302.304 132.746 302.696C133.496 303.08 134.093 303.544 134.536 304.089C134.979 304.626 135.316 305.134 135.546 305.611H135.801V302.364H140.365V322.32C140.365 323.999 139.965 325.388 139.164 326.487C138.363 327.587 137.267 328.409 135.878 328.955C134.489 329.5 132.912 329.773 131.148 329.773ZM131.186 318.088C132.167 318.088 133.002 317.849 133.692 317.372C134.382 316.895 134.907 316.209 135.265 315.314C135.623 314.419 135.801 313.345 135.801 312.092C135.801 310.857 135.623 309.774 135.265 308.845C134.915 307.916 134.395 307.196 133.705 306.685C133.023 306.165 132.184 305.905 131.186 305.905C130.155 305.905 129.294 306.173 128.604 306.71C127.914 307.247 127.394 307.984 127.044 308.922C126.695 309.851 126.52 310.908 126.52 312.092C126.52 313.294 126.695 314.347 127.044 315.25C127.402 316.145 127.926 316.844 128.617 317.347C129.316 317.841 130.172 318.088 131.186 318.088ZM153.801 322.384C151.833 322.384 150.132 321.974 148.701 321.156C147.277 320.33 146.182 319.162 145.415 317.653C144.648 316.136 144.265 314.351 144.265 312.297C144.265 310.277 144.648 308.504 145.415 306.979C146.191 305.445 147.273 304.251 148.662 303.399C150.051 302.538 151.684 302.108 153.559 302.108C154.769 302.108 155.911 302.304 156.985 302.696C158.067 303.08 159.022 303.676 159.848 304.486C160.684 305.295 161.34 306.327 161.817 307.58C162.294 308.824 162.533 310.307 162.533 312.028V313.447H146.438V310.328H158.097C158.088 309.442 157.897 308.653 157.522 307.963C157.147 307.264 156.623 306.714 155.949 306.314C155.284 305.913 154.509 305.713 153.623 305.713C152.676 305.713 151.846 305.943 151.13 306.403C150.414 306.855 149.855 307.452 149.455 308.193C149.063 308.926 148.863 309.732 148.854 310.609V313.332C148.854 314.474 149.063 315.455 149.48 316.273C149.898 317.082 150.482 317.705 151.232 318.139C151.982 318.565 152.86 318.778 153.865 318.778C154.539 318.778 155.148 318.685 155.694 318.497C156.239 318.301 156.712 318.016 157.113 317.641C157.513 317.266 157.816 316.801 158.02 316.247L162.341 316.733C162.069 317.875 161.549 318.872 160.782 319.724C160.023 320.568 159.051 321.224 157.867 321.693C156.682 322.153 155.327 322.384 153.801 322.384ZM176.254 302.364V305.943H164.965V302.364H176.254ZM167.752 297.659H172.38V316.094C172.38 316.716 172.474 317.193 172.661 317.526C172.857 317.849 173.113 318.071 173.428 318.19C173.744 318.31 174.093 318.369 174.477 318.369C174.766 318.369 175.031 318.348 175.269 318.305C175.516 318.263 175.704 318.224 175.832 318.19L176.612 321.808C176.364 321.893 176.011 321.987 175.55 322.089C175.099 322.192 174.545 322.251 173.888 322.268C172.729 322.303 171.685 322.128 170.756 321.744C169.827 321.352 169.09 320.747 168.545 319.929C168.008 319.111 167.744 318.088 167.752 316.861V297.659Z" fill="black"/>
<rect x="302.5" y="12.5" width="194" height="123" rx="3.5" stroke="black" stroke-width="3"/>
<path d="M336.827 104H334.497L339.732 89.4545H342.267L347.501 104H345.172L341.06 92.0966H340.946L336.827 104ZM337.217 98.304H344.774V100.151H337.217V98.304ZM349.431 104V93.0909H351.47V94.8665H351.605C351.832 94.2652 352.204 93.7964 352.72 93.4602C353.236 93.1193 353.854 92.9489 354.574 92.9489C355.303 92.9489 355.913 93.1193 356.406 93.4602C356.903 93.8011 357.27 94.2699 357.507 94.8665H357.62C357.881 94.2841 358.295 93.8201 358.863 93.4744C359.431 93.1241 360.109 92.9489 360.895 92.9489C361.884 92.9489 362.691 93.259 363.316 93.8793C363.946 94.4995 364.261 95.4347 364.261 96.6847V104H362.137V96.8835C362.137 96.1449 361.936 95.6098 361.534 95.2784C361.131 94.947 360.651 94.7812 360.092 94.7812C359.401 94.7812 358.863 94.9943 358.48 95.4205C358.096 95.8419 357.904 96.384 357.904 97.0469V104H355.788V96.7486C355.788 96.1567 355.603 95.6809 355.234 95.321C354.865 94.9612 354.384 94.7812 353.792 94.7812C353.39 94.7812 353.018 94.8878 352.677 95.1009C352.341 95.3092 352.069 95.6004 351.86 95.9744C351.657 96.3485 351.555 96.7817 351.555 97.2741V104H349.431ZM371.702 104.22C370.68 104.22 369.787 103.986 369.025 103.517C368.263 103.048 367.671 102.393 367.249 101.55C366.828 100.707 366.617 99.7221 366.617 98.5952C366.617 97.4635 366.828 96.474 367.249 95.6264C367.671 94.7789 368.263 94.1207 369.025 93.652C369.787 93.1832 370.68 92.9489 371.702 92.9489C372.725 92.9489 373.618 93.1832 374.38 93.652C375.142 94.1207 375.734 94.7789 376.156 95.6264C376.577 96.474 376.788 97.4635 376.788 98.5952C376.788 99.7221 376.577 100.707 376.156 101.55C375.734 102.393 375.142 103.048 374.38 103.517C373.618 103.986 372.725 104.22 371.702 104.22ZM371.71 102.438C372.372 102.438 372.922 102.262 373.357 101.912C373.793 101.562 374.115 101.095 374.323 100.513C374.536 99.9304 374.643 99.2888 374.643 98.5881C374.643 97.892 374.536 97.2528 374.323 96.6705C374.115 96.0833 373.793 95.6122 373.357 95.2571C372.922 94.902 372.372 94.7244 371.71 94.7244C371.042 94.7244 370.488 94.902 370.048 95.2571C369.612 95.6122 369.288 96.0833 369.075 96.6705C368.866 97.2528 368.762 97.892 368.762 98.5881C368.762 99.2888 368.866 99.9304 369.075 100.513C369.288 101.095 369.612 101.562 370.048 101.912C370.488 102.262 371.042 102.438 371.71 102.438ZM386.069 99.4759V93.0909H388.199V104H386.111V102.111H385.998C385.747 102.693 385.344 103.179 384.79 103.567C384.241 103.95 383.557 104.142 382.738 104.142C382.037 104.142 381.417 103.988 380.877 103.68C380.342 103.368 379.92 102.906 379.613 102.295C379.31 101.685 379.158 100.929 379.158 100.03V93.0909H381.282V99.7741C381.282 100.518 381.488 101.109 381.9 101.55C382.311 101.99 382.846 102.21 383.505 102.21C383.902 102.21 384.298 102.111 384.691 101.912C385.088 101.713 385.417 101.412 385.678 101.01C385.943 100.607 386.073 100.096 386.069 99.4759ZM393.176 97.5227V104H391.053V93.0909H393.091V94.8665H393.226C393.477 94.2888 393.87 93.8248 394.405 93.4744C394.945 93.1241 395.624 92.9489 396.443 92.9489C397.187 92.9489 397.838 93.1051 398.396 93.4176C398.955 93.7254 399.388 94.1847 399.696 94.7955C400.004 95.4062 400.158 96.1615 400.158 97.0611V104H398.034V97.3168C398.034 96.526 397.828 95.9081 397.416 95.4631C397.004 95.0133 396.438 94.7884 395.719 94.7884C395.226 94.7884 394.788 94.8949 394.405 95.108C394.026 95.321 393.725 95.6335 393.503 96.0455C393.285 96.4527 393.176 96.9451 393.176 97.5227ZM408.098 93.0909V94.7955H402.139V93.0909H408.098ZM403.737 90.4773H405.861V100.797C405.861 101.209 405.922 101.519 406.045 101.727C406.169 101.931 406.327 102.071 406.521 102.146C406.72 102.217 406.936 102.253 407.168 102.253C407.338 102.253 407.487 102.241 407.615 102.217C407.743 102.194 407.842 102.175 407.913 102.161L408.297 103.915C408.174 103.962 407.999 104.009 407.771 104.057C407.544 104.109 407.26 104.137 406.919 104.142C406.36 104.152 405.839 104.052 405.357 103.844C404.874 103.635 404.483 103.313 404.185 102.878C403.886 102.442 403.737 101.895 403.737 101.237V90.4773ZM422.168 95.804V97.6506H415.719V95.804H422.168ZM430.461 104V89.4545H439.481V91.3438H432.656V95.7756H438.835V97.6577H432.656V104H430.461ZM445.911 104.22C444.836 104.22 443.91 103.991 443.134 103.531C442.362 103.067 441.765 102.416 441.344 101.578C440.927 100.735 440.719 99.7481 440.719 98.6165C440.719 97.4991 440.927 96.5142 441.344 95.6619C441.765 94.8097 442.352 94.1444 443.105 93.6662C443.863 93.188 444.748 92.9489 445.761 92.9489C446.377 92.9489 446.973 93.0507 447.551 93.2543C448.129 93.4579 448.647 93.7775 449.107 94.2131C449.566 94.6487 449.928 95.2145 450.193 95.9105C450.458 96.6018 450.591 97.4422 450.591 98.4318V99.1847H441.919V97.5938H448.51C448.51 97.035 448.396 96.5402 448.169 96.1094C447.942 95.6738 447.622 95.3305 447.21 95.0795C446.803 94.8286 446.325 94.7031 445.776 94.7031C445.179 94.7031 444.658 94.8499 444.213 95.1435C443.773 95.4323 443.432 95.8111 443.19 96.2798C442.954 96.7438 442.835 97.2481 442.835 97.7926V99.0355C442.835 99.7647 442.963 100.385 443.219 100.896C443.479 101.408 443.841 101.798 444.305 102.068C444.769 102.333 445.312 102.466 445.932 102.466C446.334 102.466 446.701 102.409 447.033 102.295C447.364 102.177 447.651 102.002 447.892 101.77C448.134 101.538 448.318 101.251 448.446 100.911L450.456 101.273C450.295 101.865 450.006 102.383 449.589 102.828C449.178 103.268 448.659 103.612 448.034 103.858C447.414 104.099 446.706 104.22 445.911 104.22ZM457.649 104.22C456.574 104.22 455.648 103.991 454.872 103.531C454.1 103.067 453.503 102.416 453.082 101.578C452.665 100.735 452.457 99.7481 452.457 98.6165C452.457 97.4991 452.665 96.5142 453.082 95.6619C453.503 94.8097 454.091 94.1444 454.843 93.6662C455.601 93.188 456.486 92.9489 457.5 92.9489C458.115 92.9489 458.712 93.0507 459.289 93.2543C459.867 93.4579 460.386 93.7775 460.845 94.2131C461.304 94.6487 461.666 95.2145 461.931 95.9105C462.197 96.6018 462.329 97.4422 462.329 98.4318V99.1847H453.657V97.5938H460.248C460.248 97.035 460.135 96.5402 459.907 96.1094C459.68 95.6738 459.36 95.3305 458.949 95.0795C458.541 94.8286 458.063 94.7031 457.514 94.7031C456.917 94.7031 456.396 94.8499 455.951 95.1435C455.511 95.4323 455.17 95.8111 454.929 96.2798C454.692 96.7438 454.574 97.2481 454.574 97.7926V99.0355C454.574 99.7647 454.701 100.385 454.957 100.896C455.217 101.408 455.58 101.798 456.044 102.068C456.508 102.333 457.05 102.466 457.67 102.466C458.073 102.466 458.44 102.409 458.771 102.295C459.102 102.177 459.389 102.002 459.63 101.77C459.872 101.538 460.056 101.251 460.184 100.911L462.194 101.273C462.033 101.865 461.744 102.383 461.328 102.828C460.916 103.268 460.397 103.612 459.772 103.858C459.152 104.099 458.444 104.22 457.649 104.22Z" fill="black"/>
<path d="M315.009 56.6364H319.523L325.568 71.392H325.807L331.852 56.6364H336.366V77H332.827V63.0099H332.638L327.01 76.9403H324.365L318.737 62.9801H318.548V77H315.009V56.6364ZM340.224 77V61.7273H343.824V77H340.224ZM342.034 59.5597C341.464 59.5597 340.973 59.3707 340.562 58.9929C340.152 58.6084 339.946 58.1477 339.946 57.6108C339.946 57.0672 340.152 56.6065 340.562 56.2287C340.973 55.8442 341.464 55.652 342.034 55.652C342.611 55.652 343.101 55.8442 343.506 56.2287C343.917 56.6065 344.122 57.0672 344.122 57.6108C344.122 58.1477 343.917 58.6084 343.506 58.9929C343.101 59.3707 342.611 59.5597 342.034 59.5597ZM353.193 77.2685C351.993 77.2685 350.919 76.9602 349.971 76.3438C349.023 75.7273 348.274 74.8324 347.724 73.6591C347.174 72.4858 346.899 71.0606 346.899 69.3835C346.899 67.6866 347.177 66.2547 347.734 65.0881C348.297 63.9148 349.056 63.0298 350.011 62.4332C350.966 61.83 352.029 61.5284 353.203 61.5284C354.098 61.5284 354.833 61.6809 355.41 61.9858C355.987 62.2841 356.444 62.6454 356.782 63.0696C357.12 63.4872 357.382 63.8816 357.568 64.2528H357.717V56.6364H361.326V77H357.787V74.5938H357.568C357.382 74.965 357.114 75.3594 356.762 75.777C356.411 76.188 355.947 76.5393 355.37 76.831C354.794 77.1226 354.068 77.2685 353.193 77.2685ZM354.197 74.3153C354.959 74.3153 355.609 74.1098 356.146 73.6989C356.683 73.2812 357.091 72.7012 357.369 71.9588C357.647 71.2164 357.787 70.3513 357.787 69.3636C357.787 68.3759 357.647 67.5175 357.369 66.7884C357.097 66.0592 356.693 65.4924 356.156 65.0881C355.626 64.6837 354.973 64.4815 354.197 64.4815C353.395 64.4815 352.725 64.6903 352.189 65.108C351.652 65.5256 351.247 66.1023 350.975 66.8381C350.704 67.5739 350.568 68.4157 350.568 69.3636C350.568 70.3182 350.704 71.17 350.975 71.919C351.254 72.6615 351.662 73.2481 352.199 73.679C352.742 74.1032 353.408 74.3153 354.197 74.3153ZM370.83 77.2685C369.63 77.2685 368.556 76.9602 367.608 76.3438C366.66 75.7273 365.911 74.8324 365.361 73.6591C364.811 72.4858 364.536 71.0606 364.536 69.3835C364.536 67.6866 364.814 66.2547 365.371 65.0881C365.934 63.9148 366.693 63.0298 367.648 62.4332C368.602 61.83 369.666 61.5284 370.839 61.5284C371.734 61.5284 372.47 61.6809 373.047 61.9858C373.624 62.2841 374.081 62.6454 374.419 63.0696C374.757 63.4872 375.019 63.8816 375.205 64.2528H375.354V56.6364H378.963V77H375.423V74.5938H375.205C375.019 74.965 374.75 75.3594 374.399 75.777C374.048 76.188 373.584 76.5393 373.007 76.831C372.43 77.1226 371.705 77.2685 370.83 77.2685ZM371.834 74.3153C372.596 74.3153 373.246 74.1098 373.783 73.6989C374.32 73.2812 374.727 72.7012 375.006 71.9588C375.284 71.2164 375.423 70.3513 375.423 69.3636C375.423 68.3759 375.284 67.5175 375.006 66.7884C374.734 66.0592 374.33 65.4924 373.793 65.0881C373.262 64.6837 372.609 64.4815 371.834 64.4815C371.032 64.4815 370.362 64.6903 369.825 65.108C369.288 65.5256 368.884 66.1023 368.612 66.8381C368.34 67.5739 368.205 68.4157 368.205 69.3636C368.205 70.3182 368.34 71.17 368.612 71.919C368.891 72.6615 369.298 73.2481 369.835 73.679C370.379 74.1032 371.045 74.3153 371.834 74.3153ZM386.398 56.6364V77H382.799V56.6364H386.398ZM396.861 77.2983C395.33 77.2983 394.007 76.9801 392.893 76.3438C391.786 75.7008 390.935 74.7926 390.338 73.6193C389.741 72.4394 389.443 71.0507 389.443 69.4531C389.443 67.8821 389.741 66.5033 390.338 65.3168C390.941 64.1236 391.783 63.1955 392.864 62.5327C393.944 61.8632 395.214 61.5284 396.672 61.5284C397.613 61.5284 398.501 61.6809 399.337 61.9858C400.179 62.2841 400.921 62.7481 401.564 63.3778C402.214 64.0076 402.724 64.8097 403.095 65.7841C403.466 66.7519 403.652 67.9053 403.652 69.2443V70.348H391.134V67.9219H400.202C400.195 67.2325 400.046 66.6193 399.754 66.0824C399.463 65.5388 399.055 65.1113 398.531 64.7997C398.014 64.4882 397.411 64.3324 396.722 64.3324C395.986 64.3324 395.339 64.5114 394.783 64.8693C394.226 65.2206 393.792 65.6847 393.48 66.2614C393.175 66.8314 393.019 67.4579 393.013 68.1406V70.2585C393.013 71.1468 393.175 71.9091 393.5 72.5455C393.825 73.1752 394.279 73.6591 394.862 73.9972C395.446 74.3286 396.128 74.4943 396.911 74.4943C397.434 74.4943 397.908 74.4214 398.332 74.2756C398.757 74.1231 399.125 73.901 399.436 73.6094C399.748 73.3177 399.983 72.9564 400.142 72.5256L403.503 72.9034C403.291 73.7917 402.886 74.5672 402.29 75.2301C401.7 75.8864 400.944 76.3968 400.023 76.7614C399.101 77.1193 398.047 77.2983 396.861 77.2983ZM406.697 77V61.7273H410.137V64.3224H410.316C410.635 63.4474 411.162 62.7647 411.897 62.2741C412.633 61.777 413.511 61.5284 414.532 61.5284C415.566 61.5284 416.438 61.7803 417.147 62.2841C417.863 62.7812 418.367 63.4607 418.659 64.3224H418.818C419.156 63.474 419.726 62.7978 420.528 62.294C421.337 61.7836 422.295 61.5284 423.402 61.5284C424.807 61.5284 425.954 61.9725 426.842 62.8608C427.73 63.7491 428.174 65.045 428.174 66.7486V77H424.565V67.3054C424.565 66.3575 424.313 65.6648 423.809 65.2273C423.306 64.7831 422.689 64.5611 421.96 64.5611C421.092 64.5611 420.412 64.8329 419.922 65.3764C419.438 65.9134 419.196 66.6127 419.196 67.4744V77H415.666V67.1562C415.666 66.3674 415.427 65.7377 414.95 65.267C414.479 64.7964 413.863 64.5611 413.1 64.5611C412.583 64.5611 412.113 64.6937 411.689 64.9588C411.264 65.2173 410.926 65.5852 410.674 66.0625C410.422 66.5331 410.297 67.0833 410.297 67.7131V77H406.697ZM436.221 77.3082C435.253 77.3082 434.381 77.1359 433.606 76.7912C432.837 76.4399 432.227 75.9228 431.776 75.2401C431.332 74.5573 431.11 73.7154 431.11 72.7145C431.11 71.8527 431.269 71.1402 431.587 70.5767C431.906 70.0133 432.34 69.5625 432.89 69.2244C433.44 68.8864 434.06 68.6312 434.749 68.4588C435.445 68.2798 436.165 68.1506 436.907 68.071C437.802 67.9782 438.528 67.8954 439.085 67.8224C439.641 67.7429 440.046 67.6236 440.298 67.4645C440.556 67.2988 440.685 67.0436 440.685 66.6989V66.6392C440.685 65.8902 440.463 65.3101 440.019 64.8991C439.575 64.4882 438.935 64.2827 438.1 64.2827C437.219 64.2827 436.519 64.4749 436.002 64.8594C435.492 65.2438 435.147 65.6979 434.968 66.2216L431.607 65.7443C431.872 64.8163 432.31 64.0407 432.92 63.4176C433.53 62.7879 434.275 62.3172 435.157 62.0057C436.039 61.6875 437.013 61.5284 438.08 61.5284C438.816 61.5284 439.549 61.6146 440.278 61.7869C441.007 61.9593 441.673 62.2443 442.276 62.642C442.879 63.0331 443.363 63.5668 443.728 64.2429C444.099 64.919 444.285 65.7642 444.285 66.7784V77H440.825V74.902H440.705C440.487 75.3262 440.178 75.724 439.781 76.0952C439.389 76.4598 438.896 76.7547 438.299 76.9801C437.709 77.1989 437.016 77.3082 436.221 77.3082ZM437.156 74.6634C437.878 74.6634 438.504 74.5208 439.035 74.2358C439.565 73.9441 439.973 73.5597 440.258 73.0824C440.549 72.6051 440.695 72.0848 440.695 71.5213V69.7216C440.583 69.8144 440.39 69.9006 440.119 69.9801C439.853 70.0597 439.555 70.1293 439.224 70.1889C438.892 70.2486 438.564 70.3016 438.239 70.348C437.915 70.3944 437.633 70.4342 437.394 70.4673C436.857 70.5402 436.377 70.6596 435.952 70.8253C435.528 70.991 435.193 71.223 434.948 71.5213C434.703 71.813 434.58 72.1908 434.58 72.6548C434.58 73.3177 434.822 73.8182 435.306 74.1562C435.79 74.4943 436.406 74.6634 437.156 74.6634ZM451.504 68.0511V77H447.904V61.7273H451.344V64.3224H451.523C451.875 63.4673 452.435 62.7879 453.204 62.2841C453.979 61.7803 454.937 61.5284 456.077 61.5284C457.131 61.5284 458.049 61.7538 458.832 62.2045C459.621 62.6553 460.23 63.3082 460.661 64.1634C461.099 65.0185 461.314 66.0559 461.308 67.2756V77H457.708V67.8324C457.708 66.8116 457.443 66.0128 456.913 65.4361C456.389 64.8594 455.663 64.571 454.735 64.571C454.105 64.571 453.545 64.7102 453.055 64.9886C452.571 65.2604 452.19 65.6548 451.911 66.1719C451.639 66.6889 451.504 67.3153 451.504 68.0511ZM480.155 56.6364V77H476.466V60.2259H476.347L471.584 63.2685V59.8878L476.645 56.6364H480.155Z" fill="black"/>
<rect x="299.5" y="262.5" width="194" height="123" rx="3.5" stroke="black" stroke-width="3"/>
<path d="M333.827 354H331.497L336.732 339.455H339.267L344.501 354H342.172L338.06 342.097H337.946L333.827 354ZM334.217 348.304H341.774V350.151H334.217V348.304ZM346.431 354V343.091H348.47V344.866H348.605C348.832 344.265 349.204 343.796 349.72 343.46C350.236 343.119 350.854 342.949 351.574 342.949C352.303 342.949 352.913 343.119 353.406 343.46C353.903 343.801 354.27 344.27 354.507 344.866H354.62C354.881 344.284 355.295 343.82 355.863 343.474C356.431 343.124 357.109 342.949 357.895 342.949C358.884 342.949 359.691 343.259 360.316 343.879C360.946 344.5 361.261 345.435 361.261 346.685V354H359.137V346.884C359.137 346.145 358.936 345.61 358.534 345.278C358.131 344.947 357.651 344.781 357.092 344.781C356.401 344.781 355.863 344.994 355.48 345.42C355.096 345.842 354.904 346.384 354.904 347.047V354H352.788V346.749C352.788 346.157 352.603 345.681 352.234 345.321C351.865 344.961 351.384 344.781 350.792 344.781C350.39 344.781 350.018 344.888 349.677 345.101C349.341 345.309 349.069 345.6 348.86 345.974C348.657 346.348 348.555 346.782 348.555 347.274V354H346.431ZM368.702 354.22C367.68 354.22 366.787 353.986 366.025 353.517C365.263 353.048 364.671 352.393 364.249 351.55C363.828 350.707 363.617 349.722 363.617 348.595C363.617 347.464 363.828 346.474 364.249 345.626C364.671 344.779 365.263 344.121 366.025 343.652C366.787 343.183 367.68 342.949 368.702 342.949C369.725 342.949 370.618 343.183 371.38 343.652C372.142 344.121 372.734 344.779 373.156 345.626C373.577 346.474 373.788 347.464 373.788 348.595C373.788 349.722 373.577 350.707 373.156 351.55C372.734 352.393 372.142 353.048 371.38 353.517C370.618 353.986 369.725 354.22 368.702 354.22ZM368.71 352.438C369.372 352.438 369.922 352.262 370.357 351.912C370.793 351.562 371.115 351.095 371.323 350.513C371.536 349.93 371.643 349.289 371.643 348.588C371.643 347.892 371.536 347.253 371.323 346.67C371.115 346.083 370.793 345.612 370.357 345.257C369.922 344.902 369.372 344.724 368.71 344.724C368.042 344.724 367.488 344.902 367.048 345.257C366.612 345.612 366.288 346.083 366.075 346.67C365.866 347.253 365.762 347.892 365.762 348.588C365.762 349.289 365.866 349.93 366.075 350.513C366.288 351.095 366.612 351.562 367.048 351.912C367.488 352.262 368.042 352.438 368.71 352.438ZM383.069 349.476V343.091H385.199V354H383.111V352.111H382.998C382.747 352.693 382.344 353.179 381.79 353.567C381.241 353.95 380.557 354.142 379.738 354.142C379.037 354.142 378.417 353.988 377.877 353.68C377.342 353.368 376.92 352.906 376.613 352.295C376.31 351.685 376.158 350.929 376.158 350.03V343.091H378.282V349.774C378.282 350.518 378.488 351.109 378.9 351.55C379.311 351.99 379.846 352.21 380.505 352.21C380.902 352.21 381.298 352.111 381.691 351.912C382.088 351.713 382.417 351.412 382.678 351.01C382.943 350.607 383.073 350.096 383.069 349.476ZM390.176 347.523V354H388.053V343.091H390.091V344.866H390.226C390.477 344.289 390.87 343.825 391.405 343.474C391.945 343.124 392.624 342.949 393.443 342.949C394.187 342.949 394.838 343.105 395.396 343.418C395.955 343.725 396.388 344.185 396.696 344.795C397.004 345.406 397.158 346.161 397.158 347.061V354H395.034V347.317C395.034 346.526 394.828 345.908 394.416 345.463C394.004 345.013 393.438 344.788 392.719 344.788C392.226 344.788 391.788 344.895 391.405 345.108C391.026 345.321 390.725 345.634 390.503 346.045C390.285 346.453 390.176 346.945 390.176 347.523ZM405.098 343.091V344.795H399.139V343.091H405.098ZM400.737 340.477H402.861V350.797C402.861 351.209 402.922 351.519 403.045 351.727C403.169 351.931 403.327 352.071 403.521 352.146C403.72 352.217 403.936 352.253 404.168 352.253C404.338 352.253 404.487 352.241 404.615 352.217C404.743 352.194 404.842 352.175 404.913 352.161L405.297 353.915C405.174 353.962 404.999 354.009 404.771 354.057C404.544 354.109 404.26 354.137 403.919 354.142C403.36 354.152 402.839 354.052 402.357 353.844C401.874 353.635 401.483 353.313 401.185 352.878C400.886 352.442 400.737 351.895 400.737 351.237V340.477ZM419.168 345.804V347.651H412.719V345.804H419.168ZM427.461 354V339.455H436.481V341.344H429.656V345.776H435.835V347.658H429.656V354H427.461ZM442.911 354.22C441.836 354.22 440.91 353.991 440.134 353.531C439.362 353.067 438.765 352.416 438.344 351.578C437.927 350.735 437.719 349.748 437.719 348.616C437.719 347.499 437.927 346.514 438.344 345.662C438.765 344.81 439.352 344.144 440.105 343.666C440.863 343.188 441.748 342.949 442.761 342.949C443.377 342.949 443.973 343.051 444.551 343.254C445.129 343.458 445.647 343.777 446.107 344.213C446.566 344.649 446.928 345.214 447.193 345.911C447.458 346.602 447.591 347.442 447.591 348.432V349.185H438.919V347.594H445.51C445.51 347.035 445.396 346.54 445.169 346.109C444.942 345.674 444.622 345.33 444.21 345.08C443.803 344.829 443.325 344.703 442.776 344.703C442.179 344.703 441.658 344.85 441.213 345.143C440.773 345.432 440.432 345.811 440.19 346.28C439.954 346.744 439.835 347.248 439.835 347.793V349.036C439.835 349.765 439.963 350.385 440.219 350.896C440.479 351.408 440.841 351.798 441.305 352.068C441.769 352.333 442.312 352.466 442.932 352.466C443.334 352.466 443.701 352.409 444.033 352.295C444.364 352.177 444.651 352.002 444.892 351.77C445.134 351.538 445.318 351.251 445.446 350.911L447.456 351.273C447.295 351.865 447.006 352.383 446.589 352.828C446.178 353.268 445.659 353.612 445.034 353.858C444.414 354.099 443.706 354.22 442.911 354.22ZM454.649 354.22C453.574 354.22 452.648 353.991 451.872 353.531C451.1 353.067 450.503 352.416 450.082 351.578C449.665 350.735 449.457 349.748 449.457 348.616C449.457 347.499 449.665 346.514 450.082 345.662C450.503 344.81 451.091 344.144 451.843 343.666C452.601 343.188 453.486 342.949 454.5 342.949C455.115 342.949 455.712 343.051 456.289 343.254C456.867 343.458 457.386 343.777 457.845 344.213C458.304 344.649 458.666 345.214 458.931 345.911C459.197 346.602 459.329 347.442 459.329 348.432V349.185H450.657V347.594H457.248C457.248 347.035 457.135 346.54 456.907 346.109C456.68 345.674 456.36 345.33 455.949 345.08C455.541 344.829 455.063 344.703 454.514 344.703C453.917 344.703 453.396 344.85 452.951 345.143C452.511 345.432 452.17 345.811 451.929 346.28C451.692 346.744 451.574 347.248 451.574 347.793V349.036C451.574 349.765 451.701 350.385 451.957 350.896C452.217 351.408 452.58 351.798 453.044 352.068C453.508 352.333 454.05 352.466 454.67 352.466C455.073 352.466 455.44 352.409 455.771 352.295C456.102 352.177 456.389 352.002 456.63 351.77C456.872 351.538 457.056 351.251 457.184 350.911L459.194 351.273C459.033 351.865 458.744 352.383 458.328 352.828C457.916 353.268 457.397 353.612 456.772 353.858C456.152 354.099 455.444 354.22 454.649 354.22Z" fill="black"/>
<path d="M312.009 306.636H316.523L322.568 321.392H322.807L328.852 306.636H333.366V327H329.827V313.01H329.638L324.01 326.94H321.365L315.737 312.98H315.548V327H312.009V306.636ZM337.224 327V311.727H340.824V327H337.224ZM339.034 309.56C338.464 309.56 337.973 309.371 337.562 308.993C337.152 308.608 336.946 308.148 336.946 307.611C336.946 307.067 337.152 306.607 337.562 306.229C337.973 305.844 338.464 305.652 339.034 305.652C339.611 305.652 340.101 305.844 340.506 306.229C340.917 306.607 341.122 307.067 341.122 307.611C341.122 308.148 340.917 308.608 340.506 308.993C340.101 309.371 339.611 309.56 339.034 309.56ZM350.193 327.268C348.993 327.268 347.919 326.96 346.971 326.344C346.023 325.727 345.274 324.832 344.724 323.659C344.174 322.486 343.899 321.061 343.899 319.384C343.899 317.687 344.177 316.255 344.734 315.088C345.297 313.915 346.056 313.03 347.011 312.433C347.966 311.83 349.029 311.528 350.203 311.528C351.098 311.528 351.833 311.681 352.41 311.986C352.987 312.284 353.444 312.645 353.782 313.07C354.12 313.487 354.382 313.882 354.568 314.253H354.717V306.636H358.326V327H354.787V324.594H354.568C354.382 324.965 354.114 325.359 353.762 325.777C353.411 326.188 352.947 326.539 352.37 326.831C351.794 327.123 351.068 327.268 350.193 327.268ZM351.197 324.315C351.959 324.315 352.609 324.11 353.146 323.699C353.683 323.281 354.091 322.701 354.369 321.959C354.647 321.216 354.787 320.351 354.787 319.364C354.787 318.376 354.647 317.518 354.369 316.788C354.097 316.059 353.693 315.492 353.156 315.088C352.626 314.684 351.973 314.482 351.197 314.482C350.395 314.482 349.725 314.69 349.189 315.108C348.652 315.526 348.247 316.102 347.975 316.838C347.704 317.574 347.568 318.416 347.568 319.364C347.568 320.318 347.704 321.17 347.975 321.919C348.254 322.661 348.662 323.248 349.199 323.679C349.742 324.103 350.408 324.315 351.197 324.315ZM367.83 327.268C366.63 327.268 365.556 326.96 364.608 326.344C363.66 325.727 362.911 324.832 362.361 323.659C361.811 322.486 361.536 321.061 361.536 319.384C361.536 317.687 361.814 316.255 362.371 315.088C362.934 313.915 363.693 313.03 364.648 312.433C365.602 311.83 366.666 311.528 367.839 311.528C368.734 311.528 369.47 311.681 370.047 311.986C370.624 312.284 371.081 312.645 371.419 313.07C371.757 313.487 372.019 313.882 372.205 314.253H372.354V306.636H375.963V327H372.423V324.594H372.205C372.019 324.965 371.75 325.359 371.399 325.777C371.048 326.188 370.584 326.539 370.007 326.831C369.43 327.123 368.705 327.268 367.83 327.268ZM368.834 324.315C369.596 324.315 370.246 324.11 370.783 323.699C371.32 323.281 371.727 322.701 372.006 321.959C372.284 321.216 372.423 320.351 372.423 319.364C372.423 318.376 372.284 317.518 372.006 316.788C371.734 316.059 371.33 315.492 370.793 315.088C370.262 314.684 369.609 314.482 368.834 314.482C368.032 314.482 367.362 314.69 366.825 315.108C366.288 315.526 365.884 316.102 365.612 316.838C365.34 317.574 365.205 318.416 365.205 319.364C365.205 320.318 365.34 321.17 365.612 321.919C365.891 322.661 366.298 323.248 366.835 323.679C367.379 324.103 368.045 324.315 368.834 324.315ZM383.398 306.636V327H379.799V306.636H383.398ZM393.861 327.298C392.33 327.298 391.007 326.98 389.893 326.344C388.786 325.701 387.935 324.793 387.338 323.619C386.741 322.439 386.443 321.051 386.443 319.453C386.443 317.882 386.741 316.503 387.338 315.317C387.941 314.124 388.783 313.196 389.864 312.533C390.944 311.863 392.214 311.528 393.672 311.528C394.613 311.528 395.501 311.681 396.337 311.986C397.179 312.284 397.921 312.748 398.564 313.378C399.214 314.008 399.724 314.81 400.095 315.784C400.466 316.752 400.652 317.905 400.652 319.244V320.348H388.134V317.922H397.202C397.195 317.232 397.046 316.619 396.754 316.082C396.463 315.539 396.055 315.111 395.531 314.8C395.014 314.488 394.411 314.332 393.722 314.332C392.986 314.332 392.339 314.511 391.783 314.869C391.226 315.221 390.792 315.685 390.48 316.261C390.175 316.831 390.019 317.458 390.013 318.141V320.259C390.013 321.147 390.175 321.909 390.5 322.545C390.825 323.175 391.279 323.659 391.862 323.997C392.446 324.329 393.128 324.494 393.911 324.494C394.434 324.494 394.908 324.421 395.332 324.276C395.757 324.123 396.125 323.901 396.436 323.609C396.748 323.318 396.983 322.956 397.142 322.526L400.503 322.903C400.291 323.792 399.886 324.567 399.29 325.23C398.7 325.886 397.944 326.397 397.023 326.761C396.101 327.119 395.047 327.298 393.861 327.298ZM403.697 327V311.727H407.137V314.322H407.316C407.635 313.447 408.162 312.765 408.897 312.274C409.633 311.777 410.511 311.528 411.532 311.528C412.566 311.528 413.438 311.78 414.147 312.284C414.863 312.781 415.367 313.461 415.659 314.322H415.818C416.156 313.474 416.726 312.798 417.528 312.294C418.337 311.784 419.295 311.528 420.402 311.528C421.807 311.528 422.954 311.973 423.842 312.861C424.73 313.749 425.174 315.045 425.174 316.749V327H421.565V317.305C421.565 316.357 421.313 315.665 420.809 315.227C420.306 314.783 419.689 314.561 418.96 314.561C418.092 314.561 417.412 314.833 416.922 315.376C416.438 315.913 416.196 316.613 416.196 317.474V327H412.666V317.156C412.666 316.367 412.427 315.738 411.95 315.267C411.479 314.796 410.863 314.561 410.1 314.561C409.583 314.561 409.113 314.694 408.689 314.959C408.264 315.217 407.926 315.585 407.674 316.062C407.422 316.533 407.297 317.083 407.297 317.713V327H403.697ZM433.221 327.308C432.253 327.308 431.381 327.136 430.606 326.791C429.837 326.44 429.227 325.923 428.776 325.24C428.332 324.557 428.11 323.715 428.11 322.714C428.11 321.853 428.269 321.14 428.587 320.577C428.906 320.013 429.34 319.562 429.89 319.224C430.44 318.886 431.06 318.631 431.749 318.459C432.445 318.28 433.165 318.151 433.907 318.071C434.802 317.978 435.528 317.895 436.085 317.822C436.641 317.743 437.046 317.624 437.298 317.464C437.556 317.299 437.685 317.044 437.685 316.699V316.639C437.685 315.89 437.463 315.31 437.019 314.899C436.575 314.488 435.935 314.283 435.1 314.283C434.219 314.283 433.519 314.475 433.002 314.859C432.492 315.244 432.147 315.698 431.968 316.222L428.607 315.744C428.872 314.816 429.31 314.041 429.92 313.418C430.53 312.788 431.275 312.317 432.157 312.006C433.039 311.688 434.013 311.528 435.08 311.528C435.816 311.528 436.549 311.615 437.278 311.787C438.007 311.959 438.673 312.244 439.276 312.642C439.879 313.033 440.363 313.567 440.728 314.243C441.099 314.919 441.285 315.764 441.285 316.778V327H437.825V324.902H437.705C437.487 325.326 437.178 325.724 436.781 326.095C436.389 326.46 435.896 326.755 435.299 326.98C434.709 327.199 434.016 327.308 433.221 327.308ZM434.156 324.663C434.878 324.663 435.504 324.521 436.035 324.236C436.565 323.944 436.973 323.56 437.258 323.082C437.549 322.605 437.695 322.085 437.695 321.521V319.722C437.583 319.814 437.39 319.901 437.119 319.98C436.853 320.06 436.555 320.129 436.224 320.189C435.892 320.249 435.564 320.302 435.239 320.348C434.915 320.394 434.633 320.434 434.394 320.467C433.857 320.54 433.377 320.66 432.952 320.825C432.528 320.991 432.193 321.223 431.948 321.521C431.703 321.813 431.58 322.191 431.58 322.655C431.58 323.318 431.822 323.818 432.306 324.156C432.79 324.494 433.406 324.663 434.156 324.663ZM448.504 318.051V327H444.904V311.727H448.344V314.322H448.523C448.875 313.467 449.435 312.788 450.204 312.284C450.979 311.78 451.937 311.528 453.077 311.528C454.131 311.528 455.049 311.754 455.832 312.205C456.621 312.655 457.23 313.308 457.661 314.163C458.099 315.018 458.314 316.056 458.308 317.276V327H454.708V317.832C454.708 316.812 454.443 316.013 453.913 315.436C453.389 314.859 452.663 314.571 451.735 314.571C451.105 314.571 450.545 314.71 450.055 314.989C449.571 315.26 449.19 315.655 448.911 316.172C448.639 316.689 448.504 317.315 448.504 318.051ZM485.805 306.636V327H482.524L472.929 313.129H472.76V327H469.071V306.636H472.372L481.957 320.517H482.136V306.636H485.805Z" fill="black"/>
<rect x="579.5" y="12.5" width="194" height="123" rx="3.5" stroke="black" stroke-width="3"/>
<path d="M613.827 104H611.497L616.732 89.4545H619.267L624.501 104H622.172L618.06 92.0966H617.946L613.827 104ZM614.217 98.304H621.774V100.151H614.217V98.304ZM626.431 104V93.0909H628.47V94.8665H628.605C628.832 94.2652 629.204 93.7964 629.72 93.4602C630.236 93.1193 630.854 92.9489 631.574 92.9489C632.303 92.9489 632.913 93.1193 633.406 93.4602C633.903 93.8011 634.27 94.2699 634.507 94.8665H634.62C634.881 94.2841 635.295 93.8201 635.863 93.4744C636.431 93.1241 637.109 92.9489 637.895 92.9489C638.884 92.9489 639.691 93.259 640.316 93.8793C640.946 94.4995 641.261 95.4347 641.261 96.6847V104H639.137V96.8835C639.137 96.1449 638.936 95.6098 638.534 95.2784C638.131 94.947 637.651 94.7812 637.092 94.7812C636.401 94.7812 635.863 94.9943 635.48 95.4205C635.096 95.8419 634.904 96.384 634.904 97.0469V104H632.788V96.7486C632.788 96.1567 632.603 95.6809 632.234 95.321C631.865 94.9612 631.384 94.7812 630.792 94.7812C630.39 94.7812 630.018 94.8878 629.677 95.1009C629.341 95.3092 629.069 95.6004 628.86 95.9744C628.657 96.3485 628.555 96.7817 628.555 97.2741V104H626.431ZM648.702 104.22C647.68 104.22 646.787 103.986 646.025 103.517C645.263 103.048 644.671 102.393 644.249 101.55C643.828 100.707 643.617 99.7221 643.617 98.5952C643.617 97.4635 643.828 96.474 644.249 95.6264C644.671 94.7789 645.263 94.1207 646.025 93.652C646.787 93.1832 647.68 92.9489 648.702 92.9489C649.725 92.9489 650.618 93.1832 651.38 93.652C652.142 94.1207 652.734 94.7789 653.156 95.6264C653.577 96.474 653.788 97.4635 653.788 98.5952C653.788 99.7221 653.577 100.707 653.156 101.55C652.734 102.393 652.142 103.048 651.38 103.517C650.618 103.986 649.725 104.22 648.702 104.22ZM648.71 102.438C649.372 102.438 649.922 102.262 650.357 101.912C650.793 101.562 651.115 101.095 651.323 100.513C651.536 99.9304 651.643 99.2888 651.643 98.5881C651.643 97.892 651.536 97.2528 651.323 96.6705C651.115 96.0833 650.793 95.6122 650.357 95.2571C649.922 94.902 649.372 94.7244 648.71 94.7244C648.042 94.7244 647.488 94.902 647.048 95.2571C646.612 95.6122 646.288 96.0833 646.075 96.6705C645.866 97.2528 645.762 97.892 645.762 98.5881C645.762 99.2888 645.866 99.9304 646.075 100.513C646.288 101.095 646.612 101.562 647.048 101.912C647.488 102.262 648.042 102.438 648.71 102.438ZM663.069 99.4759V93.0909H665.199V104H663.111V102.111H662.998C662.747 102.693 662.344 103.179 661.79 103.567C661.241 103.95 660.557 104.142 659.738 104.142C659.037 104.142 658.417 103.988 657.877 103.68C657.342 103.368 656.92 102.906 656.613 102.295C656.31 101.685 656.158 100.929 656.158 100.03V93.0909H658.282V99.7741C658.282 100.518 658.488 101.109 658.9 101.55C659.311 101.99 659.846 102.21 660.505 102.21C660.902 102.21 661.298 102.111 661.691 101.912C662.088 101.713 662.417 101.412 662.678 101.01C662.943 100.607 663.073 100.096 663.069 99.4759ZM670.176 97.5227V104H668.053V93.0909H670.091V94.8665H670.226C670.477 94.2888 670.87 93.8248 671.405 93.4744C671.945 93.1241 672.624 92.9489 673.443 92.9489C674.187 92.9489 674.838 93.1051 675.396 93.4176C675.955 93.7254 676.388 94.1847 676.696 94.7955C677.004 95.4062 677.158 96.1615 677.158 97.0611V104H675.034V97.3168C675.034 96.526 674.828 95.9081 674.416 95.4631C674.004 95.0133 673.438 94.7884 672.719 94.7884C672.226 94.7884 671.788 94.8949 671.405 95.108C671.026 95.321 670.725 95.6335 670.503 96.0455C670.285 96.4527 670.176 96.9451 670.176 97.5227ZM685.098 93.0909V94.7955H679.139V93.0909H685.098ZM680.737 90.4773H682.861V100.797C682.861 101.209 682.922 101.519 683.045 101.727C683.169 101.931 683.327 102.071 683.521 102.146C683.72 102.217 683.936 102.253 684.168 102.253C684.338 102.253 684.487 102.241 684.615 102.217C684.743 102.194 684.842 102.175 684.913 102.161L685.297 103.915C685.174 103.962 684.999 104.009 684.771 104.057C684.544 104.109 684.26 104.137 683.919 104.142C683.36 104.152 682.839 104.052 682.357 103.844C681.874 103.635 681.483 103.313 681.185 102.878C680.886 102.442 680.737 101.895 680.737 101.237V90.4773ZM699.168 95.804V97.6506H692.719V95.804H699.168ZM707.461 104V89.4545H716.481V91.3438H709.656V95.7756H715.835V97.6577H709.656V104H707.461ZM722.911 104.22C721.836 104.22 720.91 103.991 720.134 103.531C719.362 103.067 718.765 102.416 718.344 101.578C717.927 100.735 717.719 99.7481 717.719 98.6165C717.719 97.4991 717.927 96.5142 718.344 95.6619C718.765 94.8097 719.352 94.1444 720.105 93.6662C720.863 93.188 721.748 92.9489 722.761 92.9489C723.377 92.9489 723.973 93.0507 724.551 93.2543C725.129 93.4579 725.647 93.7775 726.107 94.2131C726.566 94.6487 726.928 95.2145 727.193 95.9105C727.458 96.6018 727.591 97.4422 727.591 98.4318V99.1847H718.919V97.5938H725.51C725.51 97.035 725.396 96.5402 725.169 96.1094C724.942 95.6738 724.622 95.3305 724.21 95.0795C723.803 94.8286 723.325 94.7031 722.776 94.7031C722.179 94.7031 721.658 94.8499 721.213 95.1435C720.773 95.4323 720.432 95.8111 720.19 96.2798C719.954 96.7438 719.835 97.2481 719.835 97.7926V99.0355C719.835 99.7647 719.963 100.385 720.219 100.896C720.479 101.408 720.841 101.798 721.305 102.068C721.769 102.333 722.312 102.466 722.932 102.466C723.334 102.466 723.701 102.409 724.033 102.295C724.364 102.177 724.651 102.002 724.892 101.77C725.134 101.538 725.318 101.251 725.446 100.911L727.456 101.273C727.295 101.865 727.006 102.383 726.589 102.828C726.178 103.268 725.659 103.612 725.034 103.858C724.414 104.099 723.706 104.22 722.911 104.22ZM734.649 104.22C733.574 104.22 732.648 103.991 731.872 103.531C731.1 103.067 730.503 102.416 730.082 101.578C729.665 100.735 729.457 99.7481 729.457 98.6165C729.457 97.4991 729.665 96.5142 730.082 95.6619C730.503 94.8097 731.091 94.1444 731.843 93.6662C732.601 93.188 733.486 92.9489 734.5 92.9489C735.115 92.9489 735.712 93.0507 736.289 93.2543C736.867 93.4579 737.386 93.7775 737.845 94.2131C738.304 94.6487 738.666 95.2145 738.931 95.9105C739.197 96.6018 739.329 97.4422 739.329 98.4318V99.1847H730.657V97.5938H737.248C737.248 97.035 737.135 96.5402 736.907 96.1094C736.68 95.6738 736.36 95.3305 735.949 95.0795C735.541 94.8286 735.063 94.7031 734.514 94.7031C733.917 94.7031 733.396 94.8499 732.951 95.1435C732.511 95.4323 732.17 95.8111 731.929 96.2798C731.692 96.7438 731.574 97.2481 731.574 97.7926V99.0355C731.574 99.7647 731.701 100.385 731.957 100.896C732.217 101.408 732.58 101.798 733.044 102.068C733.508 102.333 734.05 102.466 734.67 102.466C735.073 102.466 735.44 102.409 735.771 102.295C736.102 102.177 736.389 102.002 736.63 101.77C736.872 101.538 737.056 101.251 737.184 100.911L739.194 101.273C739.033 101.865 738.744 102.383 738.328 102.828C737.916 103.268 737.397 103.612 736.772 103.858C736.152 104.099 735.444 104.22 734.649 104.22Z" fill="black"/>
<path d="M592.009 56.6364H596.523L602.568 71.392H602.807L608.852 56.6364H613.366V77H609.827V63.0099H609.638L604.01 76.9403H601.365L595.737 62.9801H595.548V77H592.009V56.6364ZM617.224 77V61.7273H620.824V77H617.224ZM619.034 59.5597C618.464 59.5597 617.973 59.3707 617.562 58.9929C617.152 58.6084 616.946 58.1477 616.946 57.6108C616.946 57.0672 617.152 56.6065 617.562 56.2287C617.973 55.8442 618.464 55.652 619.034 55.652C619.611 55.652 620.101 55.8442 620.506 56.2287C620.917 56.6065 621.122 57.0672 621.122 57.6108C621.122 58.1477 620.917 58.6084 620.506 58.9929C620.101 59.3707 619.611 59.5597 619.034 59.5597ZM630.193 77.2685C628.993 77.2685 627.919 76.9602 626.971 76.3438C626.023 75.7273 625.274 74.8324 624.724 73.6591C624.174 72.4858 623.899 71.0606 623.899 69.3835C623.899 67.6866 624.177 66.2547 624.734 65.0881C625.297 63.9148 626.056 63.0298 627.011 62.4332C627.966 61.83 629.029 61.5284 630.203 61.5284C631.098 61.5284 631.833 61.6809 632.41 61.9858C632.987 62.2841 633.444 62.6454 633.782 63.0696C634.12 63.4872 634.382 63.8816 634.568 64.2528H634.717V56.6364H638.326V77H634.787V74.5938H634.568C634.382 74.965 634.114 75.3594 633.762 75.777C633.411 76.188 632.947 76.5393 632.37 76.831C631.794 77.1226 631.068 77.2685 630.193 77.2685ZM631.197 74.3153C631.959 74.3153 632.609 74.1098 633.146 73.6989C633.683 73.2812 634.091 72.7012 634.369 71.9588C634.647 71.2164 634.787 70.3513 634.787 69.3636C634.787 68.3759 634.647 67.5175 634.369 66.7884C634.097 66.0592 633.693 65.4924 633.156 65.0881C632.626 64.6837 631.973 64.4815 631.197 64.4815C630.395 64.4815 629.725 64.6903 629.189 65.108C628.652 65.5256 628.247 66.1023 627.975 66.8381C627.704 67.5739 627.568 68.4157 627.568 69.3636C627.568 70.3182 627.704 71.17 627.975 71.919C628.254 72.6615 628.662 73.2481 629.199 73.679C629.742 74.1032 630.408 74.3153 631.197 74.3153ZM647.83 77.2685C646.63 77.2685 645.556 76.9602 644.608 76.3438C643.66 75.7273 642.911 74.8324 642.361 73.6591C641.811 72.4858 641.536 71.0606 641.536 69.3835C641.536 67.6866 641.814 66.2547 642.371 65.0881C642.934 63.9148 643.693 63.0298 644.648 62.4332C645.602 61.83 646.666 61.5284 647.839 61.5284C648.734 61.5284 649.47 61.6809 650.047 61.9858C650.624 62.2841 651.081 62.6454 651.419 63.0696C651.757 63.4872 652.019 63.8816 652.205 64.2528H652.354V56.6364H655.963V77H652.423V74.5938H652.205C652.019 74.965 651.75 75.3594 651.399 75.777C651.048 76.188 650.584 76.5393 650.007 76.831C649.43 77.1226 648.705 77.2685 647.83 77.2685ZM648.834 74.3153C649.596 74.3153 650.246 74.1098 650.783 73.6989C651.32 73.2812 651.727 72.7012 652.006 71.9588C652.284 71.2164 652.423 70.3513 652.423 69.3636C652.423 68.3759 652.284 67.5175 652.006 66.7884C651.734 66.0592 651.33 65.4924 650.793 65.0881C650.262 64.6837 649.609 64.4815 648.834 64.4815C648.032 64.4815 647.362 64.6903 646.825 65.108C646.288 65.5256 645.884 66.1023 645.612 66.8381C645.34 67.5739 645.205 68.4157 645.205 69.3636C645.205 70.3182 645.34 71.17 645.612 71.919C645.891 72.6615 646.298 73.2481 646.835 73.679C647.379 74.1032 648.045 74.3153 648.834 74.3153ZM663.398 56.6364V77H659.799V56.6364H663.398ZM673.861 77.2983C672.33 77.2983 671.007 76.9801 669.893 76.3438C668.786 75.7008 667.935 74.7926 667.338 73.6193C666.741 72.4394 666.443 71.0507 666.443 69.4531C666.443 67.8821 666.741 66.5033 667.338 65.3168C667.941 64.1236 668.783 63.1955 669.864 62.5327C670.944 61.8632 672.214 61.5284 673.672 61.5284C674.613 61.5284 675.501 61.6809 676.337 61.9858C677.179 62.2841 677.921 62.7481 678.564 63.3778C679.214 64.0076 679.724 64.8097 680.095 65.7841C680.466 66.7519 680.652 67.9053 680.652 69.2443V70.348H668.134V67.9219H677.202C677.195 67.2325 677.046 66.6193 676.754 66.0824C676.463 65.5388 676.055 65.1113 675.531 64.7997C675.014 64.4882 674.411 64.3324 673.722 64.3324C672.986 64.3324 672.339 64.5114 671.783 64.8693C671.226 65.2206 670.792 65.6847 670.48 66.2614C670.175 66.8314 670.019 67.4579 670.013 68.1406V70.2585C670.013 71.1468 670.175 71.9091 670.5 72.5455C670.825 73.1752 671.279 73.6591 671.862 73.9972C672.446 74.3286 673.128 74.4943 673.911 74.4943C674.434 74.4943 674.908 74.4214 675.332 74.2756C675.757 74.1231 676.125 73.901 676.436 73.6094C676.748 73.3177 676.983 72.9564 677.142 72.5256L680.503 72.9034C680.291 73.7917 679.886 74.5672 679.29 75.2301C678.7 75.8864 677.944 76.3968 677.023 76.7614C676.101 77.1193 675.047 77.2983 673.861 77.2983ZM683.697 77V61.7273H687.137V64.3224H687.316C687.635 63.4474 688.162 62.7647 688.897 62.2741C689.633 61.777 690.511 61.5284 691.532 61.5284C692.566 61.5284 693.438 61.7803 694.147 62.2841C694.863 62.7812 695.367 63.4607 695.659 64.3224H695.818C696.156 63.474 696.726 62.7978 697.528 62.294C698.337 61.7836 699.295 61.5284 700.402 61.5284C701.807 61.5284 702.954 61.9725 703.842 62.8608C704.73 63.7491 705.174 65.045 705.174 66.7486V77H701.565V67.3054C701.565 66.3575 701.313 65.6648 700.809 65.2273C700.306 64.7831 699.689 64.5611 698.96 64.5611C698.092 64.5611 697.412 64.8329 696.922 65.3764C696.438 65.9134 696.196 66.6127 696.196 67.4744V77H692.666V67.1562C692.666 66.3674 692.427 65.7377 691.95 65.267C691.479 64.7964 690.863 64.5611 690.1 64.5611C689.583 64.5611 689.113 64.6937 688.689 64.9588C688.264 65.2173 687.926 65.5852 687.674 66.0625C687.422 66.5331 687.297 67.0833 687.297 67.7131V77H683.697ZM713.221 77.3082C712.253 77.3082 711.381 77.1359 710.606 76.7912C709.837 76.4399 709.227 75.9228 708.776 75.2401C708.332 74.5573 708.11 73.7154 708.11 72.7145C708.11 71.8527 708.269 71.1402 708.587 70.5767C708.906 70.0133 709.34 69.5625 709.89 69.2244C710.44 68.8864 711.06 68.6312 711.749 68.4588C712.445 68.2798 713.165 68.1506 713.907 68.071C714.802 67.9782 715.528 67.8954 716.085 67.8224C716.641 67.7429 717.046 67.6236 717.298 67.4645C717.556 67.2988 717.685 67.0436 717.685 66.6989V66.6392C717.685 65.8902 717.463 65.3101 717.019 64.8991C716.575 64.4882 715.935 64.2827 715.1 64.2827C714.219 64.2827 713.519 64.4749 713.002 64.8594C712.492 65.2438 712.147 65.6979 711.968 66.2216L708.607 65.7443C708.872 64.8163 709.31 64.0407 709.92 63.4176C710.53 62.7879 711.275 62.3172 712.157 62.0057C713.039 61.6875 714.013 61.5284 715.08 61.5284C715.816 61.5284 716.549 61.6146 717.278 61.7869C718.007 61.9593 718.673 62.2443 719.276 62.642C719.879 63.0331 720.363 63.5668 720.728 64.2429C721.099 64.919 721.285 65.7642 721.285 66.7784V77H717.825V74.902H717.705C717.487 75.3262 717.178 75.724 716.781 76.0952C716.389 76.4598 715.896 76.7547 715.299 76.9801C714.709 77.1989 714.016 77.3082 713.221 77.3082ZM714.156 74.6634C714.878 74.6634 715.504 74.5208 716.035 74.2358C716.565 73.9441 716.973 73.5597 717.258 73.0824C717.549 72.6051 717.695 72.0848 717.695 71.5213V69.7216C717.583 69.8144 717.39 69.9006 717.119 69.9801C716.853 70.0597 716.555 70.1293 716.224 70.1889C715.892 70.2486 715.564 70.3016 715.239 70.348C714.915 70.3944 714.633 70.4342 714.394 70.4673C713.857 70.5402 713.377 70.6596 712.952 70.8253C712.528 70.991 712.193 71.223 711.948 71.5213C711.703 71.813 711.58 72.1908 711.58 72.6548C711.58 73.3177 711.822 73.8182 712.306 74.1562C712.79 74.4943 713.406 74.6634 714.156 74.6634ZM728.504 68.0511V77H724.904V61.7273H728.344V64.3224H728.523C728.875 63.4673 729.435 62.7879 730.204 62.2841C730.979 61.7803 731.937 61.5284 733.077 61.5284C734.131 61.5284 735.049 61.7538 735.832 62.2045C736.621 62.6553 737.23 63.3082 737.661 64.1634C738.099 65.0185 738.314 66.0559 738.308 67.2756V77H734.708V67.8324C734.708 66.8116 734.443 66.0128 733.913 65.4361C733.389 64.8594 732.663 64.571 731.735 64.571C731.105 64.571 730.545 64.7102 730.055 64.9886C729.571 65.2604 729.19 65.6548 728.911 66.1719C728.639 66.6889 728.504 67.3153 728.504 68.0511ZM748.872 77V74.3352L755.942 67.4048C756.618 66.7221 757.181 66.1155 757.632 65.5852C758.083 65.0549 758.421 64.5412 758.646 64.044C758.872 63.5469 758.984 63.0166 758.984 62.4531C758.984 61.8101 758.839 61.2599 758.547 60.8026C758.255 60.3385 757.854 59.9806 757.344 59.7287C756.833 59.4768 756.253 59.3509 755.604 59.3509C754.934 59.3509 754.348 59.4901 753.844 59.7685C753.34 60.0402 752.949 60.428 752.67 60.9318C752.399 61.4356 752.263 62.0355 752.263 62.7315H748.753C748.753 61.4389 749.048 60.3153 749.638 59.3608C750.228 58.4062 751.04 57.6671 752.074 57.1435C753.115 56.6198 754.308 56.358 755.653 56.358C757.019 56.358 758.219 56.6132 759.253 57.1236C760.287 57.634 761.089 58.3333 761.659 59.2216C762.236 60.1098 762.524 61.1241 762.524 62.2642C762.524 63.0265 762.378 63.7756 762.087 64.5114C761.795 65.2472 761.281 66.0625 760.545 66.9574C759.816 67.8523 758.792 68.9361 757.473 70.2088L753.963 73.7784V73.9176H762.832V77H748.872Z" fill="black"/>
<rect x="579.5" y="264.5" width="194" height="123" rx="3.5" stroke="black" stroke-width="3"/>
<path d="M613.827 356H611.497L616.732 341.455H619.267L624.501 356H622.172L618.06 344.097H617.946L613.827 356ZM614.217 350.304H621.774V352.151H614.217V350.304ZM626.431 356V345.091H628.47V346.866H628.605C628.832 346.265 629.204 345.796 629.72 345.46C630.236 345.119 630.854 344.949 631.574 344.949C632.303 344.949 632.913 345.119 633.406 345.46C633.903 345.801 634.27 346.27 634.507 346.866H634.62C634.881 346.284 635.295 345.82 635.863 345.474C636.431 345.124 637.109 344.949 637.895 344.949C638.884 344.949 639.691 345.259 640.316 345.879C640.946 346.5 641.261 347.435 641.261 348.685V356H639.137V348.884C639.137 348.145 638.936 347.61 638.534 347.278C638.131 346.947 637.651 346.781 637.092 346.781C636.401 346.781 635.863 346.994 635.48 347.42C635.096 347.842 634.904 348.384 634.904 349.047V356H632.788V348.749C632.788 348.157 632.603 347.681 632.234 347.321C631.865 346.961 631.384 346.781 630.792 346.781C630.39 346.781 630.018 346.888 629.677 347.101C629.341 347.309 629.069 347.6 628.86 347.974C628.657 348.348 628.555 348.782 628.555 349.274V356H626.431ZM648.702 356.22C647.68 356.22 646.787 355.986 646.025 355.517C645.263 355.048 644.671 354.393 644.249 353.55C643.828 352.707 643.617 351.722 643.617 350.595C643.617 349.464 643.828 348.474 644.249 347.626C644.671 346.779 645.263 346.121 646.025 345.652C646.787 345.183 647.68 344.949 648.702 344.949C649.725 344.949 650.618 345.183 651.38 345.652C652.142 346.121 652.734 346.779 653.156 347.626C653.577 348.474 653.788 349.464 653.788 350.595C653.788 351.722 653.577 352.707 653.156 353.55C652.734 354.393 652.142 355.048 651.38 355.517C650.618 355.986 649.725 356.22 648.702 356.22ZM648.71 354.438C649.372 354.438 649.922 354.262 650.357 353.912C650.793 353.562 651.115 353.095 651.323 352.513C651.536 351.93 651.643 351.289 651.643 350.588C651.643 349.892 651.536 349.253 651.323 348.67C651.115 348.083 650.793 347.612 650.357 347.257C649.922 346.902 649.372 346.724 648.71 346.724C648.042 346.724 647.488 346.902 647.048 347.257C646.612 347.612 646.288 348.083 646.075 348.67C645.866 349.253 645.762 349.892 645.762 350.588C645.762 351.289 645.866 351.93 646.075 352.513C646.288 353.095 646.612 353.562 647.048 353.912C647.488 354.262 648.042 354.438 648.71 354.438ZM663.069 351.476V345.091H665.199V356H663.111V354.111H662.998C662.747 354.693 662.344 355.179 661.79 355.567C661.241 355.95 660.557 356.142 659.738 356.142C659.037 356.142 658.417 355.988 657.877 355.68C657.342 355.368 656.92 354.906 656.613 354.295C656.31 353.685 656.158 352.929 656.158 352.03V345.091H658.282V351.774C658.282 352.518 658.488 353.109 658.9 353.55C659.311 353.99 659.846 354.21 660.505 354.21C660.902 354.21 661.298 354.111 661.691 353.912C662.088 353.713 662.417 353.412 662.678 353.01C662.943 352.607 663.073 352.096 663.069 351.476ZM670.176 349.523V356H668.053V345.091H670.091V346.866H670.226C670.477 346.289 670.87 345.825 671.405 345.474C671.945 345.124 672.624 344.949 673.443 344.949C674.187 344.949 674.838 345.105 675.396 345.418C675.955 345.725 676.388 346.185 676.696 346.795C677.004 347.406 677.158 348.161 677.158 349.061V356H675.034V349.317C675.034 348.526 674.828 347.908 674.416 347.463C674.004 347.013 673.438 346.788 672.719 346.788C672.226 346.788 671.788 346.895 671.405 347.108C671.026 347.321 670.725 347.634 670.503 348.045C670.285 348.453 670.176 348.945 670.176 349.523ZM685.098 345.091V346.795H679.139V345.091H685.098ZM680.737 342.477H682.861V352.797C682.861 353.209 682.922 353.519 683.045 353.727C683.169 353.931 683.327 354.071 683.521 354.146C683.72 354.217 683.936 354.253 684.168 354.253C684.338 354.253 684.487 354.241 684.615 354.217C684.743 354.194 684.842 354.175 684.913 354.161L685.297 355.915C685.174 355.962 684.999 356.009 684.771 356.057C684.544 356.109 684.26 356.137 683.919 356.142C683.36 356.152 682.839 356.052 682.357 355.844C681.874 355.635 681.483 355.313 681.185 354.878C680.886 354.442 680.737 353.895 680.737 353.237V342.477ZM699.168 347.804V349.651H692.719V347.804H699.168ZM707.461 356V341.455H716.481V343.344H709.656V347.776H715.835V349.658H709.656V356H707.461ZM722.911 356.22C721.836 356.22 720.91 355.991 720.134 355.531C719.362 355.067 718.765 354.416 718.344 353.578C717.927 352.735 717.719 351.748 717.719 350.616C717.719 349.499 717.927 348.514 718.344 347.662C718.765 346.81 719.352 346.144 720.105 345.666C720.863 345.188 721.748 344.949 722.761 344.949C723.377 344.949 723.973 345.051 724.551 345.254C725.129 345.458 725.647 345.777 726.107 346.213C726.566 346.649 726.928 347.214 727.193 347.911C727.458 348.602 727.591 349.442 727.591 350.432V351.185H718.919V349.594H725.51C725.51 349.035 725.396 348.54 725.169 348.109C724.942 347.674 724.622 347.33 724.21 347.08C723.803 346.829 723.325 346.703 722.776 346.703C722.179 346.703 721.658 346.85 721.213 347.143C720.773 347.432 720.432 347.811 720.19 348.28C719.954 348.744 719.835 349.248 719.835 349.793V351.036C719.835 351.765 719.963 352.385 720.219 352.896C720.479 353.408 720.841 353.798 721.305 354.068C721.769 354.333 722.312 354.466 722.932 354.466C723.334 354.466 723.701 354.409 724.033 354.295C724.364 354.177 724.651 354.002 724.892 353.77C725.134 353.538 725.318 353.251 725.446 352.911L727.456 353.273C727.295 353.865 727.006 354.383 726.589 354.828C726.178 355.268 725.659 355.612 725.034 355.858C724.414 356.099 723.706 356.22 722.911 356.22ZM734.649 356.22C733.574 356.22 732.648 355.991 731.872 355.531C731.1 355.067 730.503 354.416 730.082 353.578C729.665 352.735 729.457 351.748 729.457 350.616C729.457 349.499 729.665 348.514 730.082 347.662C730.503 346.81 731.091 346.144 731.843 345.666C732.601 345.188 733.486 344.949 734.5 344.949C735.115 344.949 735.712 345.051 736.289 345.254C736.867 345.458 737.386 345.777 737.845 346.213C738.304 346.649 738.666 347.214 738.931 347.911C739.197 348.602 739.329 349.442 739.329 350.432V351.185H730.657V349.594H737.248C737.248 349.035 737.135 348.54 736.907 348.109C736.68 347.674 736.36 347.33 735.949 347.08C735.541 346.829 735.063 346.703 734.514 346.703C733.917 346.703 733.396 346.85 732.951 347.143C732.511 347.432 732.17 347.811 731.929 348.28C731.692 348.744 731.574 349.248 731.574 349.793V351.036C731.574 351.765 731.701 352.385 731.957 352.896C732.217 353.408 732.58 353.798 733.044 354.068C733.508 354.333 734.05 354.466 734.67 354.466C735.073 354.466 735.44 354.409 735.771 354.295C736.102 354.177 736.389 354.002 736.63 353.77C736.872 353.538 737.056 353.251 737.184 352.911L739.194 353.273C739.033 353.865 738.744 354.383 738.328 354.828C737.916 355.268 737.397 355.612 736.772 355.858C736.152 356.099 735.444 356.22 734.649 356.22Z" fill="black"/>
<path d="M592.009 308.636H596.523L602.568 323.392H602.807L608.852 308.636H613.366V329H609.827V315.01H609.638L604.01 328.94H601.365L595.737 314.98H595.548V329H592.009V308.636ZM617.224 329V313.727H620.824V329H617.224ZM619.034 311.56C618.464 311.56 617.973 311.371 617.562 310.993C617.152 310.608 616.946 310.148 616.946 309.611C616.946 309.067 617.152 308.607 617.562 308.229C617.973 307.844 618.464 307.652 619.034 307.652C619.611 307.652 620.101 307.844 620.506 308.229C620.917 308.607 621.122 309.067 621.122 309.611C621.122 310.148 620.917 310.608 620.506 310.993C620.101 311.371 619.611 311.56 619.034 311.56ZM630.193 329.268C628.993 329.268 627.919 328.96 626.971 328.344C626.023 327.727 625.274 326.832 624.724 325.659C624.174 324.486 623.899 323.061 623.899 321.384C623.899 319.687 624.177 318.255 624.734 317.088C625.297 315.915 626.056 315.03 627.011 314.433C627.966 313.83 629.029 313.528 630.203 313.528C631.098 313.528 631.833 313.681 632.41 313.986C632.987 314.284 633.444 314.645 633.782 315.07C634.12 315.487 634.382 315.882 634.568 316.253H634.717V308.636H638.326V329H634.787V326.594H634.568C634.382 326.965 634.114 327.359 633.762 327.777C633.411 328.188 632.947 328.539 632.37 328.831C631.794 329.123 631.068 329.268 630.193 329.268ZM631.197 326.315C631.959 326.315 632.609 326.11 633.146 325.699C633.683 325.281 634.091 324.701 634.369 323.959C634.647 323.216 634.787 322.351 634.787 321.364C634.787 320.376 634.647 319.518 634.369 318.788C634.097 318.059 633.693 317.492 633.156 317.088C632.626 316.684 631.973 316.482 631.197 316.482C630.395 316.482 629.725 316.69 629.189 317.108C628.652 317.526 628.247 318.102 627.975 318.838C627.704 319.574 627.568 320.416 627.568 321.364C627.568 322.318 627.704 323.17 627.975 323.919C628.254 324.661 628.662 325.248 629.199 325.679C629.742 326.103 630.408 326.315 631.197 326.315ZM647.83 329.268C646.63 329.268 645.556 328.96 644.608 328.344C643.66 327.727 642.911 326.832 642.361 325.659C641.811 324.486 641.536 323.061 641.536 321.384C641.536 319.687 641.814 318.255 642.371 317.088C642.934 315.915 643.693 315.03 644.648 314.433C645.602 313.83 646.666 313.528 647.839 313.528C648.734 313.528 649.47 313.681 650.047 313.986C650.624 314.284 651.081 314.645 651.419 315.07C651.757 315.487 652.019 315.882 652.205 316.253H652.354V308.636H655.963V329H652.423V326.594H652.205C652.019 326.965 651.75 327.359 651.399 327.777C651.048 328.188 650.584 328.539 650.007 328.831C649.43 329.123 648.705 329.268 647.83 329.268ZM648.834 326.315C649.596 326.315 650.246 326.11 650.783 325.699C651.32 325.281 651.727 324.701 652.006 323.959C652.284 323.216 652.423 322.351 652.423 321.364C652.423 320.376 652.284 319.518 652.006 318.788C651.734 318.059 651.33 317.492 650.793 317.088C650.262 316.684 649.609 316.482 648.834 316.482C648.032 316.482 647.362 316.69 646.825 317.108C646.288 317.526 645.884 318.102 645.612 318.838C645.34 319.574 645.205 320.416 645.205 321.364C645.205 322.318 645.34 323.17 645.612 323.919C645.891 324.661 646.298 325.248 646.835 325.679C647.379 326.103 648.045 326.315 648.834 326.315ZM663.398 308.636V329H659.799V308.636H663.398ZM673.861 329.298C672.33 329.298 671.007 328.98 669.893 328.344C668.786 327.701 667.935 326.793 667.338 325.619C666.741 324.439 666.443 323.051 666.443 321.453C666.443 319.882 666.741 318.503 667.338 317.317C667.941 316.124 668.783 315.196 669.864 314.533C670.944 313.863 672.214 313.528 673.672 313.528C674.613 313.528 675.501 313.681 676.337 313.986C677.179 314.284 677.921 314.748 678.564 315.378C679.214 316.008 679.724 316.81 680.095 317.784C680.466 318.752 680.652 319.905 680.652 321.244V322.348H668.134V319.922H677.202C677.195 319.232 677.046 318.619 676.754 318.082C676.463 317.539 676.055 317.111 675.531 316.8C675.014 316.488 674.411 316.332 673.722 316.332C672.986 316.332 672.339 316.511 671.783 316.869C671.226 317.221 670.792 317.685 670.48 318.261C670.175 318.831 670.019 319.458 670.013 320.141V322.259C670.013 323.147 670.175 323.909 670.5 324.545C670.825 325.175 671.279 325.659 671.862 325.997C672.446 326.329 673.128 326.494 673.911 326.494C674.434 326.494 674.908 326.421 675.332 326.276C675.757 326.123 676.125 325.901 676.436 325.609C676.748 325.318 676.983 324.956 677.142 324.526L680.503 324.903C680.291 325.792 679.886 326.567 679.29 327.23C678.7 327.886 677.944 328.397 677.023 328.761C676.101 329.119 675.047 329.298 673.861 329.298ZM683.697 329V313.727H687.137V316.322H687.316C687.635 315.447 688.162 314.765 688.897 314.274C689.633 313.777 690.511 313.528 691.532 313.528C692.566 313.528 693.438 313.78 694.147 314.284C694.863 314.781 695.367 315.461 695.659 316.322H695.818C696.156 315.474 696.726 314.798 697.528 314.294C698.337 313.784 699.295 313.528 700.402 313.528C701.807 313.528 702.954 313.973 703.842 314.861C704.73 315.749 705.174 317.045 705.174 318.749V329H701.565V319.305C701.565 318.357 701.313 317.665 700.809 317.227C700.306 316.783 699.689 316.561 698.96 316.561C698.092 316.561 697.412 316.833 696.922 317.376C696.438 317.913 696.196 318.613 696.196 319.474V329H692.666V319.156C692.666 318.367 692.427 317.738 691.95 317.267C691.479 316.796 690.863 316.561 690.1 316.561C689.583 316.561 689.113 316.694 688.689 316.959C688.264 317.217 687.926 317.585 687.674 318.062C687.422 318.533 687.297 319.083 687.297 319.713V329H683.697ZM713.221 329.308C712.253 329.308 711.381 329.136 710.606 328.791C709.837 328.44 709.227 327.923 708.776 327.24C708.332 326.557 708.11 325.715 708.11 324.714C708.11 323.853 708.269 323.14 708.587 322.577C708.906 322.013 709.34 321.562 709.89 321.224C710.44 320.886 711.06 320.631 711.749 320.459C712.445 320.28 713.165 320.151 713.907 320.071C714.802 319.978 715.528 319.895 716.085 319.822C716.641 319.743 717.046 319.624 717.298 319.464C717.556 319.299 717.685 319.044 717.685 318.699V318.639C717.685 317.89 717.463 317.31 717.019 316.899C716.575 316.488 715.935 316.283 715.1 316.283C714.219 316.283 713.519 316.475 713.002 316.859C712.492 317.244 712.147 317.698 711.968 318.222L708.607 317.744C708.872 316.816 709.31 316.041 709.92 315.418C710.53 314.788 711.275 314.317 712.157 314.006C713.039 313.688 714.013 313.528 715.08 313.528C715.816 313.528 716.549 313.615 717.278 313.787C718.007 313.959 718.673 314.244 719.276 314.642C719.879 315.033 720.363 315.567 720.728 316.243C721.099 316.919 721.285 317.764 721.285 318.778V329H717.825V326.902H717.705C717.487 327.326 717.178 327.724 716.781 328.095C716.389 328.46 715.896 328.755 715.299 328.98C714.709 329.199 714.016 329.308 713.221 329.308ZM714.156 326.663C714.878 326.663 715.504 326.521 716.035 326.236C716.565 325.944 716.973 325.56 717.258 325.082C717.549 324.605 717.695 324.085 717.695 323.521V321.722C717.583 321.814 717.39 321.901 717.119 321.98C716.853 322.06 716.555 322.129 716.224 322.189C715.892 322.249 715.564 322.302 715.239 322.348C714.915 322.394 714.633 322.434 714.394 322.467C713.857 322.54 713.377 322.66 712.952 322.825C712.528 322.991 712.193 323.223 711.948 323.521C711.703 323.813 711.58 324.191 711.58 324.655C711.58 325.318 711.822 325.818 712.306 326.156C712.79 326.494 713.406 326.663 714.156 326.663ZM728.504 320.051V329H724.904V313.727H728.344V316.322H728.523C728.875 315.467 729.435 314.788 730.204 314.284C730.979 313.78 731.937 313.528 733.077 313.528C734.131 313.528 735.049 313.754 735.832 314.205C736.621 314.655 737.23 315.308 737.661 316.163C738.099 317.018 738.314 318.056 738.308 319.276V329H734.708V319.832C734.708 318.812 734.443 318.013 733.913 317.436C733.389 316.859 732.663 316.571 731.735 316.571C731.105 316.571 730.545 316.71 730.055 316.989C729.571 317.26 729.19 317.655 728.911 318.172C728.639 318.689 728.504 319.315 728.504 320.051ZM756.18 329.278C754.749 329.278 753.476 329.033 752.362 328.543C751.255 328.052 750.38 327.369 749.737 326.494C749.094 325.619 748.753 324.608 748.713 323.462H752.452C752.485 324.012 752.667 324.492 752.999 324.903C753.33 325.308 753.771 325.623 754.321 325.848C754.871 326.073 755.488 326.186 756.17 326.186C756.9 326.186 757.546 326.06 758.109 325.808C758.673 325.55 759.114 325.192 759.432 324.734C759.75 324.277 759.906 323.75 759.899 323.153C759.906 322.537 759.747 321.993 759.422 321.523C759.097 321.052 758.626 320.684 758.01 320.419C757.4 320.154 756.664 320.021 755.803 320.021H754.003V317.178H755.803C756.512 317.178 757.132 317.055 757.662 316.81C758.199 316.564 758.62 316.22 758.925 315.776C759.23 315.325 759.379 314.804 759.372 314.214C759.379 313.638 759.25 313.137 758.984 312.713C758.726 312.282 758.358 311.947 757.881 311.709C757.41 311.47 756.857 311.351 756.22 311.351C755.597 311.351 755.02 311.464 754.49 311.689C753.96 311.914 753.532 312.236 753.207 312.653C752.883 313.064 752.71 313.555 752.69 314.125H749.141C749.167 312.985 749.495 311.984 750.125 311.122C750.761 310.254 751.61 309.578 752.67 309.094C753.731 308.603 754.921 308.358 756.24 308.358C757.599 308.358 758.779 308.613 759.78 309.124C760.787 309.627 761.566 310.307 762.116 311.162C762.667 312.017 762.942 312.962 762.942 313.996C762.948 315.143 762.61 316.104 761.928 316.879C761.251 317.655 760.363 318.162 759.263 318.401V318.56C760.695 318.759 761.792 319.289 762.554 320.151C763.323 321.006 763.704 322.07 763.697 323.342C763.697 324.482 763.373 325.503 762.723 326.405C762.08 327.3 761.192 328.002 760.058 328.513C758.931 329.023 757.639 329.278 756.18 329.278Z" fill="black"/>
<path d="M592.009 308.636H596.523L602.568 323.392H602.807L608.852 308.636H613.366V329H609.827V315.01H609.638L604.01 328.94H601.365L595.737 314.98H595.548V329H592.009V308.636ZM617.224 329V313.727H620.824V329H617.224ZM619.034 311.56C618.464 311.56 617.973 311.371 617.562 310.993C617.152 310.608 616.946 310.148 616.946 309.611C616.946 309.067 617.152 308.607 617.562 308.229C617.973 307.844 618.464 307.652 619.034 307.652C619.611 307.652 620.101 307.844 620.506 308.229C620.917 308.607 621.122 309.067 621.122 309.611C621.122 310.148 620.917 310.608 620.506 310.993C620.101 311.371 619.611 311.56 619.034 311.56ZM630.193 329.268C628.993 329.268 627.919 328.96 626.971 328.344C626.023 327.727 625.274 326.832 624.724 325.659C624.174 324.486 623.899 323.061 623.899 321.384C623.899 319.687 624.177 318.255 624.734 317.088C625.297 315.915 626.056 315.03 627.011 314.433C627.966 313.83 629.029 313.528 630.203 313.528C631.098 313.528 631.833 313.681 632.41 313.986C632.987 314.284 633.444 314.645 633.782 315.07C634.12 315.487 634.382 315.882 634.568 316.253H634.717V308.636H638.326V329H634.787V326.594H634.568C634.382 326.965 634.114 327.359 633.762 327.777C633.411 328.188 632.947 328.539 632.37 328.831C631.794 329.123 631.068 329.268 630.193 329.268ZM631.197 326.315C631.959 326.315 632.609 326.11 633.146 325.699C633.683 325.281 634.091 324.701 634.369 323.959C634.647 323.216 634.787 322.351 634.787 321.364C634.787 320.376 634.647 319.518 634.369 318.788C634.097 318.059 633.693 317.492 633.156 317.088C632.626 316.684 631.973 316.482 631.197 316.482C630.395 316.482 629.725 316.69 629.189 317.108C628.652 317.526 628.247 318.102 627.975 318.838C627.704 319.574 627.568 320.416 627.568 321.364C627.568 322.318 627.704 323.17 627.975 323.919C628.254 324.661 628.662 325.248 629.199 325.679C629.742 326.103 630.408 326.315 631.197 326.315ZM647.83 329.268C646.63 329.268 645.556 328.96 644.608 328.344C643.66 327.727 642.911 326.832 642.361 325.659C641.811 324.486 641.536 323.061 641.536 321.384C641.536 319.687 641.814 318.255 642.371 317.088C642.934 315.915 643.693 315.03 644.648 314.433C645.602 313.83 646.666 313.528 647.839 313.528C648.734 313.528 649.47 313.681 650.047 313.986C650.624 314.284 651.081 314.645 651.419 315.07C651.757 315.487 652.019 315.882 652.205 316.253H652.354V308.636H655.963V329H652.423V326.594H652.205C652.019 326.965 651.75 327.359 651.399 327.777C651.048 328.188 650.584 328.539 650.007 328.831C649.43 329.123 648.705 329.268 647.83 329.268ZM648.834 326.315C649.596 326.315 650.246 326.11 650.783 325.699C651.32 325.281 651.727 324.701 652.006 323.959C652.284 323.216 652.423 322.351 652.423 321.364C652.423 320.376 652.284 319.518 652.006 318.788C651.734 318.059 651.33 317.492 650.793 317.088C650.262 316.684 649.609 316.482 648.834 316.482C648.032 316.482 647.362 316.69 646.825 317.108C646.288 317.526 645.884 318.102 645.612 318.838C645.34 319.574 645.205 320.416 645.205 321.364C645.205 322.318 645.34 323.17 645.612 323.919C645.891 324.661 646.298 325.248 646.835 325.679C647.379 326.103 648.045 326.315 648.834 326.315ZM663.398 308.636V329H659.799V308.636H663.398ZM673.861 329.298C672.33 329.298 671.007 328.98 669.893 328.344C668.786 327.701 667.935 326.793 667.338 325.619C666.741 324.439 666.443 323.051 666.443 321.453C666.443 319.882 666.741 318.503 667.338 317.317C667.941 316.124 668.783 315.196 669.864 314.533C670.944 313.863 672.214 313.528 673.672 313.528C674.613 313.528 675.501 313.681 676.337 313.986C677.179 314.284 677.921 314.748 678.564 315.378C679.214 316.008 679.724 316.81 680.095 317.784C680.466 318.752 680.652 319.905 680.652 321.244V322.348H668.134V319.922H677.202C677.195 319.232 677.046 318.619 676.754 318.082C676.463 317.539 676.055 317.111 675.531 316.8C675.014 316.488 674.411 316.332 673.722 316.332C672.986 316.332 672.339 316.511 671.783 316.869C671.226 317.221 670.792 317.685 670.48 318.261C670.175 318.831 670.019 319.458 670.013 320.141V322.259C670.013 323.147 670.175 323.909 670.5 324.545C670.825 325.175 671.279 325.659 671.862 325.997C672.446 326.329 673.128 326.494 673.911 326.494C674.434 326.494 674.908 326.421 675.332 326.276C675.757 326.123 676.125 325.901 676.436 325.609C676.748 325.318 676.983 324.956 677.142 324.526L680.503 324.903C680.291 325.792 679.886 326.567 679.29 327.23C678.7 327.886 677.944 328.397 677.023 328.761C676.101 329.119 675.047 329.298 673.861 329.298ZM683.697 329V313.727H687.137V316.322H687.316C687.635 315.447 688.162 314.765 688.897 314.274C689.633 313.777 690.511 313.528 691.532 313.528C692.566 313.528 693.438 313.78 694.147 314.284C694.863 314.781 695.367 315.461 695.659 316.322H695.818C696.156 315.474 696.726 314.798 697.528 314.294C698.337 313.784 699.295 313.528 700.402 313.528C701.807 313.528 702.954 313.973 703.842 314.861C704.73 315.749 705.174 317.045 705.174 318.749V329H701.565V319.305C701.565 318.357 701.313 317.665 700.809 317.227C700.306 316.783 699.689 316.561 698.96 316.561C698.092 316.561 697.412 316.833 696.922 317.376C696.438 317.913 696.196 318.613 696.196 319.474V329H692.666V319.156C692.666 318.367 692.427 317.738 691.95 317.267C691.479 316.796 690.863 316.561 690.1 316.561C689.583 316.561 689.113 316.694 688.689 316.959C688.264 317.217 687.926 317.585 687.674 318.062C687.422 318.533 687.297 319.083 687.297 319.713V329H683.697ZM713.221 329.308C712.253 329.308 711.381 329.136 710.606 328.791C709.837 328.44 709.227 327.923 708.776 327.24C708.332 326.557 708.11 325.715 708.11 324.714C708.11 323.853 708.269 323.14 708.587 322.577C708.906 322.013 709.34 321.562 709.89 321.224C710.44 320.886 711.06 320.631 711.749 320.459C712.445 320.28 713.165 320.151 713.907 320.071C714.802 319.978 715.528 319.895 716.085 319.822C716.641 319.743 717.046 319.624 717.298 319.464C717.556 319.299 717.685 319.044 717.685 318.699V318.639C717.685 317.89 717.463 317.31 717.019 316.899C716.575 316.488 715.935 316.283 715.1 316.283C714.219 316.283 713.519 316.475 713.002 316.859C712.492 317.244 712.147 317.698 711.968 318.222L708.607 317.744C708.872 316.816 709.31 316.041 709.92 315.418C710.53 314.788 711.275 314.317 712.157 314.006C713.039 313.688 714.013 313.528 715.08 313.528C715.816 313.528 716.549 313.615 717.278 313.787C718.007 313.959 718.673 314.244 719.276 314.642C719.879 315.033 720.363 315.567 720.728 316.243C721.099 316.919 721.285 317.764 721.285 318.778V329H717.825V326.902H717.705C717.487 327.326 717.178 327.724 716.781 328.095C716.389 328.46 715.896 328.755 715.299 328.98C714.709 329.199 714.016 329.308 713.221 329.308ZM714.156 326.663C714.878 326.663 715.504 326.521 716.035 326.236C716.565 325.944 716.973 325.56 717.258 325.082C717.549 324.605 717.695 324.085 717.695 323.521V321.722C717.583 321.814 717.39 321.901 717.119 321.98C716.853 322.06 716.555 322.129 716.224 322.189C715.892 322.249 715.564 322.302 715.239 322.348C714.915 322.394 714.633 322.434 714.394 322.467C713.857 322.54 713.377 322.66 712.952 322.825C712.528 322.991 712.193 323.223 711.948 323.521C711.703 323.813 711.58 324.191 711.58 324.655C711.58 325.318 711.822 325.818 712.306 326.156C712.79 326.494 713.406 326.663 714.156 326.663ZM728.504 320.051V329H724.904V313.727H728.344V316.322H728.523C728.875 315.467 729.435 314.788 730.204 314.284C730.979 313.78 731.937 313.528 733.077 313.528C734.131 313.528 735.049 313.754 735.832 314.205C736.621 314.655 737.23 315.308 737.661 316.163C738.099 317.018 738.314 318.056 738.308 319.276V329H734.708V319.832C734.708 318.812 734.443 318.013 733.913 317.436C733.389 316.859 732.663 316.571 731.735 316.571C731.105 316.571 730.545 316.71 730.055 316.989C729.571 317.26 729.19 317.655 728.911 318.172C728.639 318.689 728.504 319.315 728.504 320.051ZM756.18 329.278C754.749 329.278 753.476 329.033 752.362 328.543C751.255 328.052 750.38 327.369 749.737 326.494C749.094 325.619 748.753 324.608 748.713 323.462H752.452C752.485 324.012 752.667 324.492 752.999 324.903C753.33 325.308 753.771 325.623 754.321 325.848C754.871 326.073 755.488 326.186 756.17 326.186C756.9 326.186 757.546 326.06 758.109 325.808C758.673 325.55 759.114 325.192 759.432 324.734C759.75 324.277 759.906 323.75 759.899 323.153C759.906 322.537 759.747 321.993 759.422 321.523C759.097 321.052 758.626 320.684 758.01 320.419C757.4 320.154 756.664 320.021 755.803 320.021H754.003V317.178H755.803C756.512 317.178 757.132 317.055 757.662 316.81C758.199 316.564 758.62 316.22 758.925 315.776C759.23 315.325 759.379 314.804 759.372 314.214C759.379 313.638 759.25 313.137 758.984 312.713C758.726 312.282 758.358 311.947 757.881 311.709C757.41 311.47 756.857 311.351 756.22 311.351C755.597 311.351 755.02 311.464 754.49 311.689C753.96 311.914 753.532 312.236 753.207 312.653C752.883 313.064 752.71 313.555 752.69 314.125H749.141C749.167 312.985 749.495 311.984 750.125 311.122C750.761 310.254 751.61 309.578 752.67 309.094C753.731 308.603 754.921 308.358 756.24 308.358C757.599 308.358 758.779 308.613 759.78 309.124C760.787 309.627 761.566 310.307 762.116 311.162C762.667 312.017 762.942 312.962 762.942 313.996C762.948 315.143 762.61 316.104 761.928 316.879C761.251 317.655 760.363 318.162 759.263 318.401V318.56C760.695 318.759 761.792 319.289 762.554 320.151C763.323 321.006 763.704 322.07 763.697 323.342C763.697 324.482 763.373 325.503 762.723 326.405C762.08 327.3 761.192 328.002 760.058 328.513C758.931 329.023 757.639 329.278 756.18 329.278Z" fill="black"/>
<path d="M521.067 326.219C520.464 326.219 519.946 326.007 519.516 325.582C519.085 325.158 518.873 324.641 518.879 324.031C518.873 323.435 519.085 322.924 519.516 322.5C519.946 322.076 520.464 321.864 521.067 321.864C521.65 321.864 522.157 322.076 522.588 322.5C523.026 322.924 523.248 323.435 523.254 324.031C523.248 324.436 523.142 324.804 522.936 325.135C522.737 325.466 522.472 325.732 522.141 325.93C521.816 326.123 521.458 326.219 521.067 326.219ZM535.504 326.219C534.901 326.219 534.384 326.007 533.953 325.582C533.522 325.158 533.31 324.641 533.317 324.031C533.31 323.435 533.522 322.924 533.953 322.5C534.384 322.076 534.901 321.864 535.504 321.864C536.088 321.864 536.595 322.076 537.026 322.5C537.463 322.924 537.685 323.435 537.692 324.031C537.685 324.436 537.579 324.804 537.374 325.135C537.175 325.466 536.91 325.732 536.578 325.93C536.253 326.123 535.895 326.219 535.504 326.219ZM549.942 326.219C549.339 326.219 548.821 326.007 548.391 325.582C547.96 325.158 547.748 324.641 547.754 324.031C547.748 323.435 547.96 322.924 548.391 322.5C548.821 322.076 549.339 321.864 549.942 321.864C550.525 321.864 551.032 322.076 551.463 322.5C551.901 322.924 552.123 323.435 552.129 324.031C552.123 324.436 552.017 324.804 551.811 325.135C551.612 325.466 551.347 325.732 551.016 325.93C550.691 326.123 550.333 326.219 549.942 326.219Z" fill="black"/>
<path d="M223 75L303 74" stroke="black" stroke-width="3"/>
<path d="M498 75L578 74" stroke="black" stroke-width="3"/>
<path d="M559.001 324.237L578 324" stroke="black" stroke-width="3"/>
<path d="M495.001 324.237L514 324" stroke="black" stroke-width="3"/>
<path d="M218 325L298 324" stroke="black" stroke-width="3"/>
<path d="M679 137L677 265" stroke="black" stroke-width="3"/>
</svg>
