<svg width="800" height="400" viewBox="0 0 800 400" fill="none" xmlns="http://www.w3.org/2000/svg">
<rect width="800" height="400" fill="#1E1E1E"/>
<rect width="800" height="400" fill="white"/>
<rect x="27.5" y="138.5" width="194" height="123" rx="3.5" stroke="black" stroke-width="3"/>
<path d="M89.8267 232H87.4972L92.7315 217.455H95.267L100.501 232H98.1719L94.0597 220.097H93.946L89.8267 232ZM90.2173 226.304H97.7741V228.151H90.2173V226.304ZM102.431 232V221.091H104.47V222.866H104.605C104.832 222.265 105.204 221.796 105.72 221.46C106.236 221.119 106.854 220.949 107.574 220.949C108.303 220.949 108.913 221.119 109.406 221.46C109.903 221.801 110.27 222.27 110.507 222.866H110.62C110.881 222.284 111.295 221.82 111.863 221.474C112.431 221.124 113.109 220.949 113.895 220.949C114.884 220.949 115.691 221.259 116.316 221.879C116.946 222.5 117.261 223.435 117.261 224.685V232H115.137V224.884C115.137 224.145 114.936 223.61 114.534 223.278C114.131 222.947 113.651 222.781 113.092 222.781C112.401 222.781 111.863 222.994 111.48 223.42C111.096 223.842 110.904 224.384 110.904 225.047V232H108.788V224.749C108.788 224.157 108.603 223.681 108.234 223.321C107.865 222.961 107.384 222.781 106.792 222.781C106.39 222.781 106.018 222.888 105.677 223.101C105.341 223.309 105.069 223.6 104.86 223.974C104.657 224.348 104.555 224.782 104.555 225.274V232H102.431ZM124.702 232.22C123.68 232.22 122.787 231.986 122.025 231.517C121.263 231.048 120.671 230.393 120.249 229.55C119.828 228.707 119.617 227.722 119.617 226.595C119.617 225.464 119.828 224.474 120.249 223.626C120.671 222.779 121.263 222.121 122.025 221.652C122.787 221.183 123.68 220.949 124.702 220.949C125.725 220.949 126.618 221.183 127.38 221.652C128.142 222.121 128.734 222.779 129.156 223.626C129.577 224.474 129.788 225.464 129.788 226.595C129.788 227.722 129.577 228.707 129.156 229.55C128.734 230.393 128.142 231.048 127.38 231.517C126.618 231.986 125.725 232.22 124.702 232.22ZM124.71 230.438C125.372 230.438 125.922 230.262 126.357 229.912C126.793 229.562 127.115 229.095 127.323 228.513C127.536 227.93 127.643 227.289 127.643 226.588C127.643 225.892 127.536 225.253 127.323 224.67C127.115 224.083 126.793 223.612 126.357 223.257C125.922 222.902 125.372 222.724 124.71 222.724C124.042 222.724 123.488 222.902 123.048 223.257C122.612 223.612 122.288 224.083 122.075 224.67C121.866 225.253 121.762 225.892 121.762 226.588C121.762 227.289 121.866 227.93 122.075 228.513C122.288 229.095 122.612 229.562 123.048 229.912C123.488 230.262 124.042 230.438 124.71 230.438ZM139.069 227.476V221.091H141.199V232H139.111V230.111H138.998C138.747 230.693 138.344 231.179 137.79 231.567C137.241 231.95 136.557 232.142 135.738 232.142C135.037 232.142 134.417 231.988 133.877 231.68C133.342 231.368 132.92 230.906 132.613 230.295C132.31 229.685 132.158 228.929 132.158 228.03V221.091H134.282V227.774C134.282 228.518 134.488 229.109 134.9 229.55C135.311 229.99 135.846 230.21 136.505 230.21C136.902 230.21 137.298 230.111 137.691 229.912C138.088 229.713 138.417 229.412 138.678 229.01C138.943 228.607 139.073 228.096 139.069 227.476ZM146.176 225.523V232H144.053V221.091H146.091V222.866H146.226C146.477 222.289 146.87 221.825 147.405 221.474C147.945 221.124 148.624 220.949 149.443 220.949C150.187 220.949 150.838 221.105 151.396 221.418C151.955 221.725 152.388 222.185 152.696 222.795C153.004 223.406 153.158 224.161 153.158 225.061V232H151.034V225.317C151.034 224.526 150.828 223.908 150.416 223.463C150.004 223.013 149.438 222.788 148.719 222.788C148.226 222.788 147.788 222.895 147.405 223.108C147.026 223.321 146.725 223.634 146.503 224.045C146.285 224.453 146.176 224.945 146.176 225.523ZM161.098 221.091V222.795H155.139V221.091H161.098ZM156.737 218.477H158.861V228.797C158.861 229.209 158.922 229.519 159.045 229.727C159.169 229.931 159.327 230.071 159.521 230.146C159.72 230.217 159.936 230.253 160.168 230.253C160.338 230.253 160.487 230.241 160.615 230.217C160.743 230.194 160.842 230.175 160.913 230.161L161.297 231.915C161.174 231.962 160.999 232.009 160.771 232.057C160.544 232.109 160.26 232.137 159.919 232.142C159.36 232.152 158.839 232.052 158.357 231.844C157.874 231.635 157.483 231.313 157.185 230.878C156.886 230.442 156.737 229.895 156.737 229.237V218.477Z" fill="black"/>
<path d="M97.9773 182.909C97.9773 185.73 97.4489 188.146 96.392 190.158C95.3438 192.161 93.9119 193.695 92.0966 194.76C90.2898 195.825 88.2401 196.358 85.9474 196.358C83.6548 196.358 81.6009 195.825 79.7855 194.76C77.9787 193.686 76.5469 192.148 75.4901 190.145C74.4418 188.134 73.9176 185.722 73.9176 182.909C73.9176 180.088 74.4418 177.676 75.4901 175.673C76.5469 173.662 77.9787 172.124 79.7855 171.058C81.6009 169.993 83.6548 169.46 85.9474 169.46C88.2401 169.46 90.2898 169.993 92.0966 171.058C93.9119 172.124 95.3438 173.662 96.392 175.673C97.4489 177.676 97.9773 180.088 97.9773 182.909ZM93.2088 182.909C93.2088 180.923 92.8977 179.249 92.2756 177.885C91.6619 176.513 90.8097 175.477 89.7188 174.778C88.6278 174.071 87.3707 173.717 85.9474 173.717C84.5241 173.717 83.267 174.071 82.1761 174.778C81.0852 175.477 80.2287 176.513 79.6065 177.885C78.9929 179.249 78.6861 180.923 78.6861 182.909C78.6861 184.895 78.9929 186.574 79.6065 187.946C80.2287 189.31 81.0852 190.345 82.1761 191.053C83.267 191.751 84.5241 192.101 85.9474 192.101C87.3707 192.101 88.6278 191.751 89.7188 191.053C90.8097 190.345 91.6619 189.31 92.2756 187.946C92.8977 186.574 93.2088 184.895 93.2088 182.909ZM102.257 196V176.364H106.744V179.636H106.949C107.306 178.503 107.92 177.629 108.789 177.016C109.667 176.393 110.669 176.082 111.794 176.082C112.049 176.082 112.335 176.095 112.65 176.121C112.974 176.138 113.243 176.168 113.456 176.21V180.467C113.26 180.399 112.949 180.339 112.522 180.288C112.105 180.229 111.7 180.199 111.308 180.199C110.464 180.199 109.706 180.382 109.032 180.749C108.368 181.107 107.843 181.605 107.46 182.244C107.076 182.884 106.885 183.621 106.885 184.456V196H102.257ZM116.53 196V176.364H121.158V196H116.53ZM118.857 173.577C118.124 173.577 117.493 173.334 116.965 172.848C116.436 172.354 116.172 171.761 116.172 171.071C116.172 170.372 116.436 169.78 116.965 169.294C117.493 168.8 118.124 168.553 118.857 168.553C119.598 168.553 120.229 168.8 120.749 169.294C121.277 169.78 121.542 170.372 121.542 171.071C121.542 171.761 121.277 172.354 120.749 172.848C120.229 173.334 119.598 173.577 118.857 173.577ZM134.457 203.773C132.795 203.773 131.367 203.547 130.174 203.095C128.981 202.652 128.022 202.055 127.298 201.305C126.573 200.555 126.07 199.724 125.789 198.812L129.957 197.803C130.144 198.186 130.417 198.565 130.775 198.94C131.133 199.324 131.614 199.639 132.219 199.886C132.833 200.142 133.604 200.27 134.533 200.27C135.846 200.27 136.933 199.95 137.793 199.311C138.654 198.68 139.085 197.641 139.085 196.192V192.472H138.854C138.616 192.949 138.266 193.439 137.806 193.942C137.354 194.445 136.754 194.866 136.004 195.207C135.262 195.548 134.329 195.719 133.204 195.719C131.695 195.719 130.327 195.365 129.1 194.658C127.881 193.942 126.91 192.876 126.185 191.462C125.469 190.038 125.112 188.257 125.112 186.118C125.112 183.962 125.469 182.142 126.185 180.659C126.91 179.168 127.886 178.038 129.113 177.271C130.34 176.496 131.708 176.108 133.217 176.108C134.367 176.108 135.313 176.304 136.055 176.696C136.805 177.08 137.401 177.544 137.844 178.089C138.288 178.626 138.624 179.134 138.854 179.611H139.11V176.364H143.674V196.32C143.674 197.999 143.273 199.388 142.472 200.487C141.671 201.587 140.576 202.409 139.187 202.955C137.798 203.5 136.221 203.773 134.457 203.773ZM134.495 192.088C135.475 192.088 136.31 191.849 137.001 191.372C137.691 190.895 138.215 190.209 138.573 189.314C138.931 188.419 139.11 187.345 139.11 186.092C139.11 184.857 138.931 183.774 138.573 182.845C138.224 181.916 137.704 181.196 137.013 180.685C136.332 180.165 135.492 179.905 134.495 179.905C133.464 179.905 132.603 180.173 131.913 180.71C131.222 181.247 130.702 181.984 130.353 182.922C130.004 183.851 129.829 184.908 129.829 186.092C129.829 187.294 130.004 188.347 130.353 189.25C130.711 190.145 131.235 190.844 131.925 191.347C132.624 191.841 133.481 192.088 134.495 192.088ZM148.417 196V176.364H153.045V196H148.417ZM150.744 173.577C150.011 173.577 149.38 173.334 148.852 172.848C148.323 172.354 148.059 171.761 148.059 171.071C148.059 170.372 148.323 169.78 148.852 169.294C149.38 168.8 150.011 168.553 150.744 168.553C151.485 168.553 152.116 168.8 152.636 169.294C153.164 169.78 153.428 170.372 153.428 171.071C153.428 171.761 153.164 172.354 152.636 172.848C152.116 173.334 151.485 173.577 150.744 173.577ZM162.431 184.494V196H157.804V176.364H162.227V179.7H162.457C162.909 178.601 163.629 177.727 164.618 177.08C165.615 176.432 166.846 176.108 168.312 176.108C169.667 176.108 170.848 176.398 171.853 176.977C172.868 177.557 173.652 178.396 174.206 179.496C174.768 180.595 175.045 181.929 175.037 183.497V196H170.409V184.213C170.409 182.901 170.068 181.874 169.386 181.132C168.713 180.391 167.779 180.02 166.586 180.02C165.777 180.02 165.056 180.199 164.426 180.557C163.804 180.906 163.314 181.413 162.956 182.078C162.606 182.743 162.431 183.548 162.431 184.494Z" fill="black"/>
<rect x="577.5" y="134.5" width="194" height="123" rx="3.5" stroke="black" stroke-width="3"/>
<path d="M586.827 228H584.497L589.732 213.455H592.267L597.501 228H595.172L591.06 216.097H590.946L586.827 228ZM587.217 222.304H594.774V224.151H587.217V222.304ZM599.431 228V217.091H601.47V218.866H601.605C601.832 218.265 602.204 217.796 602.72 217.46C603.236 217.119 603.854 216.949 604.574 216.949C605.303 216.949 605.913 217.119 606.406 217.46C606.903 217.801 607.27 218.27 607.507 218.866H607.62C607.881 218.284 608.295 217.82 608.863 217.474C609.431 217.124 610.109 216.949 610.895 216.949C611.884 216.949 612.691 217.259 613.316 217.879C613.946 218.5 614.261 219.435 614.261 220.685V228H612.137V220.884C612.137 220.145 611.936 219.61 611.534 219.278C611.131 218.947 610.651 218.781 610.092 218.781C609.401 218.781 608.863 218.994 608.48 219.42C608.096 219.842 607.904 220.384 607.904 221.047V228H605.788V220.749C605.788 220.157 605.603 219.681 605.234 219.321C604.865 218.961 604.384 218.781 603.792 218.781C603.39 218.781 603.018 218.888 602.677 219.101C602.341 219.309 602.069 219.6 601.86 219.974C601.657 220.348 601.555 220.782 601.555 221.274V228H599.431ZM621.702 228.22C620.68 228.22 619.787 227.986 619.025 227.517C618.263 227.048 617.671 226.393 617.249 225.55C616.828 224.707 616.617 223.722 616.617 222.595C616.617 221.464 616.828 220.474 617.249 219.626C617.671 218.779 618.263 218.121 619.025 217.652C619.787 217.183 620.68 216.949 621.702 216.949C622.725 216.949 623.618 217.183 624.38 217.652C625.142 218.121 625.734 218.779 626.156 219.626C626.577 220.474 626.788 221.464 626.788 222.595C626.788 223.722 626.577 224.707 626.156 225.55C625.734 226.393 625.142 227.048 624.38 227.517C623.618 227.986 622.725 228.22 621.702 228.22ZM621.71 226.438C622.372 226.438 622.922 226.262 623.357 225.912C623.793 225.562 624.115 225.095 624.323 224.513C624.536 223.93 624.643 223.289 624.643 222.588C624.643 221.892 624.536 221.253 624.323 220.67C624.115 220.083 623.793 219.612 623.357 219.257C622.922 218.902 622.372 218.724 621.71 218.724C621.042 218.724 620.488 218.902 620.048 219.257C619.612 219.612 619.288 220.083 619.075 220.67C618.866 221.253 618.762 221.892 618.762 222.588C618.762 223.289 618.866 223.93 619.075 224.513C619.288 225.095 619.612 225.562 620.048 225.912C620.488 226.262 621.042 226.438 621.71 226.438ZM636.069 223.476V217.091H638.199V228H636.111V226.111H635.998C635.747 226.693 635.344 227.179 634.79 227.567C634.241 227.95 633.557 228.142 632.738 228.142C632.037 228.142 631.417 227.988 630.877 227.68C630.342 227.368 629.92 226.906 629.613 226.295C629.31 225.685 629.158 224.929 629.158 224.03V217.091H631.282V223.774C631.282 224.518 631.488 225.109 631.9 225.55C632.311 225.99 632.846 226.21 633.505 226.21C633.902 226.21 634.298 226.111 634.691 225.912C635.088 225.713 635.417 225.412 635.678 225.01C635.943 224.607 636.073 224.096 636.069 223.476ZM643.176 221.523V228H641.053V217.091H643.091V218.866H643.226C643.477 218.289 643.87 217.825 644.405 217.474C644.945 217.124 645.624 216.949 646.443 216.949C647.187 216.949 647.838 217.105 648.396 217.418C648.955 217.725 649.388 218.185 649.696 218.795C650.004 219.406 650.158 220.161 650.158 221.061V228H648.034V221.317C648.034 220.526 647.828 219.908 647.416 219.463C647.004 219.013 646.438 218.788 645.719 218.788C645.226 218.788 644.788 218.895 644.405 219.108C644.026 219.321 643.725 219.634 643.503 220.045C643.285 220.453 643.176 220.945 643.176 221.523ZM658.098 217.091V218.795H652.139V217.091H658.098ZM653.737 214.477H655.861V224.797C655.861 225.209 655.922 225.519 656.045 225.727C656.169 225.931 656.327 226.071 656.521 226.146C656.72 226.217 656.936 226.253 657.168 226.253C657.338 226.253 657.487 226.241 657.615 226.217C657.743 226.194 657.842 226.175 657.913 226.161L658.297 227.915C658.174 227.962 657.999 228.009 657.771 228.057C657.544 228.109 657.26 228.137 656.919 228.142C656.36 228.152 655.839 228.052 655.357 227.844C654.874 227.635 654.483 227.313 654.185 226.878C653.886 226.442 653.737 225.895 653.737 225.237V214.477ZM672.168 220.933V222.773H665.719V220.933H672.168ZM680.909 220.727C680.909 218.947 681.143 217.309 681.612 215.812C682.081 214.316 682.765 212.936 683.664 211.672H685.61C685.26 212.141 684.933 212.716 684.63 213.398C684.327 214.08 684.062 214.828 683.835 215.642C683.608 216.452 683.43 217.292 683.302 218.163C683.174 219.03 683.11 219.884 683.11 220.727C683.11 221.854 683.222 222.995 683.444 224.151C683.667 225.306 683.967 226.378 684.346 227.368C684.725 228.357 685.146 229.165 685.61 229.79H683.664C682.765 228.526 682.081 227.145 681.612 225.649C681.143 224.153 680.909 222.512 680.909 220.727ZM688.02 228V213.455H697.04V215.344H690.214V219.776H696.393V221.658H690.214V228H688.02ZM703.469 228.22C702.394 228.22 701.469 227.991 700.692 227.531C699.92 227.067 699.324 226.416 698.902 225.578C698.486 224.735 698.277 223.748 698.277 222.616C698.277 221.499 698.486 220.514 698.902 219.662C699.324 218.81 699.911 218.144 700.664 217.666C701.421 217.188 702.307 216.949 703.32 216.949C703.935 216.949 704.532 217.051 705.11 217.254C705.687 217.458 706.206 217.777 706.665 218.213C707.124 218.649 707.487 219.214 707.752 219.911C708.017 220.602 708.15 221.442 708.15 222.432V223.185H699.478V221.594H706.069C706.069 221.035 705.955 220.54 705.728 220.109C705.5 219.674 705.181 219.33 704.769 219.08C704.362 218.829 703.883 218.703 703.334 218.703C702.738 218.703 702.217 218.85 701.772 219.143C701.331 219.432 700.99 219.811 700.749 220.28C700.512 220.744 700.394 221.248 700.394 221.793V223.036C700.394 223.765 700.522 224.385 700.777 224.896C701.038 225.408 701.4 225.798 701.864 226.068C702.328 226.333 702.87 226.466 703.49 226.466C703.893 226.466 704.26 226.409 704.591 226.295C704.923 226.177 705.209 226.002 705.451 225.77C705.692 225.538 705.877 225.251 706.005 224.911L708.015 225.273C707.854 225.865 707.565 226.383 707.148 226.828C706.736 227.268 706.218 227.612 705.593 227.858C704.972 228.099 704.265 228.22 703.469 228.22ZM715.207 228.22C714.133 228.22 713.207 227.991 712.43 227.531C711.659 227.067 711.062 226.416 710.641 225.578C710.224 224.735 710.016 223.748 710.016 222.616C710.016 221.499 710.224 220.514 710.641 219.662C711.062 218.81 711.649 218.144 712.402 217.666C713.16 217.188 714.045 216.949 715.058 216.949C715.674 216.949 716.27 217.051 716.848 217.254C717.426 217.458 717.944 217.777 718.403 218.213C718.863 218.649 719.225 219.214 719.49 219.911C719.755 220.602 719.888 221.442 719.888 222.432V223.185H711.216V221.594H717.807C717.807 221.035 717.693 220.54 717.466 220.109C717.239 219.674 716.919 219.33 716.507 219.08C716.1 218.829 715.622 218.703 715.072 218.703C714.476 218.703 713.955 218.85 713.51 219.143C713.07 219.432 712.729 219.811 712.487 220.28C712.25 220.744 712.132 221.248 712.132 221.793V223.036C712.132 223.765 712.26 224.385 712.516 224.896C712.776 225.408 713.138 225.798 713.602 226.068C714.066 226.333 714.608 226.466 715.229 226.466C715.631 226.466 715.998 226.409 716.33 226.295C716.661 226.177 716.947 226.002 717.189 225.77C717.43 225.538 717.615 225.251 717.743 224.911L719.753 225.273C719.592 225.865 719.303 226.383 718.886 226.828C718.474 227.268 717.956 227.612 717.331 227.858C716.711 228.099 716.003 228.22 715.207 228.22ZM725.262 221.636L725.397 218.639L722.869 220.266L722.095 218.916L724.779 217.545L722.095 216.175L722.869 214.825L725.397 216.452L725.262 213.455H726.804L726.669 216.452L729.197 214.825L729.971 216.175L727.287 217.545L729.971 218.916L729.197 220.266L726.669 218.639L726.804 221.636H725.262ZM732.645 228V226.409L737.567 221.31C738.093 220.756 738.526 220.27 738.867 219.854C739.212 219.432 739.471 219.032 739.641 218.653C739.811 218.275 739.897 217.872 739.897 217.446C739.897 216.963 739.783 216.546 739.556 216.196C739.328 215.841 739.018 215.569 738.625 215.379C738.232 215.185 737.79 215.088 737.297 215.088C736.776 215.088 736.322 215.195 735.934 215.408C735.545 215.621 735.247 215.921 735.039 216.31C734.83 216.698 734.726 217.152 734.726 217.673H732.631C732.631 216.788 732.835 216.014 733.242 215.351C733.649 214.688 734.208 214.174 734.918 213.81C735.628 213.44 736.435 213.256 737.34 213.256C738.254 213.256 739.059 213.438 739.755 213.803C740.455 214.162 741.002 214.655 741.395 215.28C741.788 215.9 741.985 216.601 741.985 217.382C741.985 217.922 741.883 218.45 741.679 218.966C741.48 219.482 741.132 220.057 740.635 220.692C740.138 221.321 739.447 222.086 738.561 222.986L735.671 226.011V226.118H742.219V228H732.645ZM756.85 213.455V228H754.833L747.439 217.332H747.304V228H745.11V213.455H747.141L754.542 224.136H754.676V213.455H756.85ZM763.964 220.727C763.964 222.512 763.73 224.153 763.261 225.649C762.793 227.145 762.108 228.526 761.209 229.79H759.263C759.613 229.321 759.94 228.746 760.243 228.064C760.546 227.382 760.811 226.636 761.038 225.827C761.266 225.012 761.443 224.17 761.571 223.298C761.699 222.427 761.763 221.57 761.763 220.727C761.763 219.605 761.652 218.466 761.429 217.311C761.206 216.156 760.906 215.083 760.527 214.094C760.148 213.104 759.727 212.297 759.263 211.672H761.209C762.108 212.936 762.793 214.316 763.261 215.812C763.73 217.309 763.964 218.947 763.964 220.727Z" fill="black"/>
<path d="M616.432 169.794V165.818H637.321V169.794H629.229V192H624.524V169.794H616.432ZM644.122 192.396C642.878 192.396 641.757 192.175 640.76 191.732C639.771 191.28 638.987 190.615 638.408 189.737C637.837 188.859 637.551 187.777 637.551 186.49C637.551 185.382 637.756 184.466 638.165 183.741C638.574 183.017 639.132 182.438 639.839 182.003C640.547 181.568 641.344 181.24 642.23 181.018C643.125 180.788 644.05 180.622 645.004 180.52C646.155 180.401 647.088 180.294 647.804 180.2C648.52 180.098 649.04 179.945 649.364 179.74C649.696 179.527 649.862 179.199 649.862 178.756V178.679C649.862 177.716 649.577 176.97 649.006 176.442C648.435 175.913 647.612 175.649 646.538 175.649C645.405 175.649 644.506 175.896 643.841 176.391C643.185 176.885 642.741 177.469 642.511 178.142L638.19 177.528C638.531 176.335 639.094 175.338 639.878 174.537C640.662 173.727 641.621 173.122 642.754 172.722C643.888 172.312 645.141 172.108 646.513 172.108C647.459 172.108 648.401 172.219 649.338 172.44C650.276 172.662 651.132 173.028 651.908 173.54C652.683 174.043 653.305 174.729 653.774 175.598C654.251 176.467 654.49 177.554 654.49 178.858V192H650.041V189.303H649.888C649.607 189.848 649.21 190.359 648.699 190.837C648.196 191.305 647.561 191.685 646.794 191.974C646.036 192.256 645.145 192.396 644.122 192.396ZM645.324 188.996C646.253 188.996 647.058 188.812 647.74 188.446C648.422 188.071 648.946 187.577 649.312 186.963C649.688 186.349 649.875 185.68 649.875 184.956V182.642C649.73 182.761 649.483 182.872 649.134 182.974C648.793 183.077 648.409 183.166 647.983 183.243C647.557 183.32 647.135 183.388 646.717 183.447C646.3 183.507 645.938 183.558 645.631 183.601C644.94 183.695 644.322 183.848 643.777 184.061C643.232 184.274 642.801 184.572 642.486 184.956C642.17 185.331 642.013 185.817 642.013 186.413C642.013 187.266 642.324 187.909 642.946 188.344C643.568 188.778 644.361 188.996 645.324 188.996ZM659.143 192V172.364H663.631V175.636H663.835C664.193 174.503 664.807 173.629 665.676 173.016C666.554 172.393 667.555 172.082 668.68 172.082C668.936 172.082 669.222 172.095 669.537 172.121C669.861 172.138 670.129 172.168 670.342 172.21V176.467C670.146 176.399 669.835 176.339 669.409 176.288C668.991 176.229 668.587 176.199 668.195 176.199C667.351 176.199 666.592 176.382 665.919 176.749C665.254 177.107 664.73 177.605 664.347 178.244C663.963 178.884 663.771 179.621 663.771 180.456V192H659.143ZM681.148 199.773C679.486 199.773 678.059 199.547 676.865 199.095C675.672 198.652 674.713 198.055 673.989 197.305C673.265 196.555 672.762 195.724 672.48 194.812L676.648 193.803C676.836 194.186 677.108 194.565 677.466 194.94C677.824 195.324 678.306 195.639 678.911 195.886C679.525 196.142 680.296 196.27 681.225 196.27C682.537 196.27 683.624 195.95 684.485 195.311C685.346 194.68 685.776 193.641 685.776 192.192V188.472H685.546C685.307 188.949 684.958 189.439 684.498 189.942C684.046 190.445 683.445 190.866 682.695 191.207C681.953 191.548 681.02 191.719 679.895 191.719C678.387 191.719 677.019 191.365 675.792 190.658C674.573 189.942 673.601 188.876 672.877 187.462C672.161 186.038 671.803 184.257 671.803 182.118C671.803 179.962 672.161 178.142 672.877 176.659C673.601 175.168 674.577 174.038 675.804 173.271C677.032 172.496 678.4 172.108 679.908 172.108C681.059 172.108 682.005 172.304 682.746 172.696C683.496 173.08 684.093 173.544 684.536 174.089C684.979 174.626 685.316 175.134 685.546 175.611H685.801V172.364H690.365V192.32C690.365 193.999 689.965 195.388 689.164 196.487C688.363 197.587 687.267 198.409 685.878 198.955C684.489 199.5 682.912 199.773 681.148 199.773ZM681.186 188.088C682.167 188.088 683.002 187.849 683.692 187.372C684.382 186.895 684.907 186.209 685.265 185.314C685.623 184.419 685.801 183.345 685.801 182.092C685.801 180.857 685.623 179.774 685.265 178.845C684.915 177.916 684.395 177.196 683.705 176.685C683.023 176.165 682.184 175.905 681.186 175.905C680.155 175.905 679.294 176.173 678.604 176.71C677.914 177.247 677.394 177.984 677.044 178.922C676.695 179.851 676.52 180.908 676.52 182.092C676.52 183.294 676.695 184.347 677.044 185.25C677.402 186.145 677.926 186.844 678.617 187.347C679.316 187.841 680.172 188.088 681.186 188.088ZM703.801 192.384C701.833 192.384 700.132 191.974 698.701 191.156C697.277 190.33 696.182 189.162 695.415 187.653C694.648 186.136 694.265 184.351 694.265 182.297C694.265 180.277 694.648 178.504 695.415 176.979C696.191 175.445 697.273 174.251 698.662 173.399C700.051 172.538 701.684 172.108 703.559 172.108C704.769 172.108 705.911 172.304 706.985 172.696C708.067 173.08 709.022 173.676 709.848 174.486C710.684 175.295 711.34 176.327 711.817 177.58C712.294 178.824 712.533 180.307 712.533 182.028V183.447H696.438V180.328H708.097C708.088 179.442 707.897 178.653 707.522 177.963C707.147 177.264 706.623 176.714 705.949 176.314C705.284 175.913 704.509 175.713 703.623 175.713C702.676 175.713 701.846 175.943 701.13 176.403C700.414 176.855 699.855 177.452 699.455 178.193C699.063 178.926 698.863 179.732 698.854 180.609V183.332C698.854 184.474 699.063 185.455 699.48 186.273C699.898 187.082 700.482 187.705 701.232 188.139C701.982 188.565 702.86 188.778 703.865 188.778C704.539 188.778 705.148 188.685 705.694 188.497C706.239 188.301 706.712 188.016 707.113 187.641C707.513 187.266 707.816 186.801 708.02 186.247L712.341 186.733C712.069 187.875 711.549 188.872 710.782 189.724C710.023 190.568 709.051 191.224 707.867 191.693C706.682 192.153 705.327 192.384 703.801 192.384ZM726.254 172.364V175.943H714.965V172.364H726.254ZM717.752 167.659H722.38V186.094C722.38 186.716 722.474 187.193 722.661 187.526C722.857 187.849 723.113 188.071 723.428 188.19C723.744 188.31 724.093 188.369 724.477 188.369C724.766 188.369 725.031 188.348 725.269 188.305C725.516 188.263 725.704 188.224 725.832 188.19L726.612 191.808C726.364 191.893 726.011 191.987 725.55 192.089C725.099 192.192 724.545 192.251 723.888 192.268C722.729 192.303 721.685 192.128 720.756 191.744C719.827 191.352 719.09 190.747 718.545 189.929C718.008 189.111 717.744 188.088 717.752 186.861V167.659Z" fill="black"/>
<rect x="302.5" y="12.5" width="194" height="123" rx="3.5" stroke="black" stroke-width="3"/>
<path d="M326.827 104H324.497L329.732 89.4545H332.267L337.501 104H335.172L331.06 92.0966H330.946L326.827 104ZM327.217 98.304H334.774V100.151H327.217V98.304ZM339.431 104V93.0909H341.47V94.8665H341.605C341.832 94.2652 342.204 93.7964 342.72 93.4602C343.236 93.1193 343.854 92.9489 344.574 92.9489C345.303 92.9489 345.913 93.1193 346.406 93.4602C346.903 93.8011 347.27 94.2699 347.507 94.8665H347.62C347.881 94.2841 348.295 93.8201 348.863 93.4744C349.431 93.1241 350.109 92.9489 350.895 92.9489C351.884 92.9489 352.691 93.259 353.316 93.8793C353.946 94.4995 354.261 95.4347 354.261 96.6847V104H352.137V96.8835C352.137 96.1449 351.936 95.6098 351.534 95.2784C351.131 94.947 350.651 94.7812 350.092 94.7812C349.401 94.7812 348.863 94.9943 348.48 95.4205C348.096 95.8419 347.904 96.384 347.904 97.0469V104H345.788V96.7486C345.788 96.1567 345.603 95.6809 345.234 95.321C344.865 94.9612 344.384 94.7812 343.792 94.7812C343.39 94.7812 343.018 94.8878 342.677 95.1009C342.341 95.3092 342.069 95.6004 341.86 95.9744C341.657 96.3485 341.555 96.7817 341.555 97.2741V104H339.431ZM361.702 104.22C360.68 104.22 359.787 103.986 359.025 103.517C358.263 103.048 357.671 102.393 357.249 101.55C356.828 100.707 356.617 99.7221 356.617 98.5952C356.617 97.4635 356.828 96.474 357.249 95.6264C357.671 94.7789 358.263 94.1207 359.025 93.652C359.787 93.1832 360.68 92.9489 361.702 92.9489C362.725 92.9489 363.618 93.1832 364.38 93.652C365.142 94.1207 365.734 94.7789 366.156 95.6264C366.577 96.474 366.788 97.4635 366.788 98.5952C366.788 99.7221 366.577 100.707 366.156 101.55C365.734 102.393 365.142 103.048 364.38 103.517C363.618 103.986 362.725 104.22 361.702 104.22ZM361.71 102.438C362.372 102.438 362.922 102.262 363.357 101.912C363.793 101.562 364.115 101.095 364.323 100.513C364.536 99.9304 364.643 99.2888 364.643 98.5881C364.643 97.892 364.536 97.2528 364.323 96.6705C364.115 96.0833 363.793 95.6122 363.357 95.2571C362.922 94.902 362.372 94.7244 361.71 94.7244C361.042 94.7244 360.488 94.902 360.048 95.2571C359.612 95.6122 359.288 96.0833 359.075 96.6705C358.866 97.2528 358.762 97.892 358.762 98.5881C358.762 99.2888 358.866 99.9304 359.075 100.513C359.288 101.095 359.612 101.562 360.048 101.912C360.488 102.262 361.042 102.438 361.71 102.438ZM376.069 99.4759V93.0909H378.199V104H376.111V102.111H375.998C375.747 102.693 375.344 103.179 374.79 103.567C374.241 103.95 373.557 104.142 372.738 104.142C372.037 104.142 371.417 103.988 370.877 103.68C370.342 103.368 369.92 102.906 369.613 102.295C369.31 101.685 369.158 100.929 369.158 100.03V93.0909H371.282V99.7741C371.282 100.518 371.488 101.109 371.9 101.55C372.311 101.99 372.846 102.21 373.505 102.21C373.902 102.21 374.298 102.111 374.691 101.912C375.088 101.713 375.417 101.412 375.678 101.01C375.943 100.607 376.073 100.096 376.069 99.4759ZM383.176 97.5227V104H381.053V93.0909H383.091V94.8665H383.226C383.477 94.2888 383.87 93.8248 384.405 93.4744C384.945 93.1241 385.624 92.9489 386.443 92.9489C387.187 92.9489 387.838 93.1051 388.396 93.4176C388.955 93.7254 389.388 94.1847 389.696 94.7955C390.004 95.4062 390.158 96.1615 390.158 97.0611V104H388.034V97.3168C388.034 96.526 387.828 95.9081 387.416 95.4631C387.004 95.0133 386.438 94.7884 385.719 94.7884C385.226 94.7884 384.788 94.8949 384.405 95.108C384.026 95.321 383.725 95.6335 383.503 96.0455C383.285 96.4527 383.176 96.9451 383.176 97.5227ZM398.098 93.0909V94.7955H392.139V93.0909H398.098ZM393.737 90.4773H395.861V100.797C395.861 101.209 395.922 101.519 396.045 101.727C396.169 101.931 396.327 102.071 396.521 102.146C396.72 102.217 396.936 102.253 397.168 102.253C397.338 102.253 397.487 102.241 397.615 102.217C397.743 102.194 397.842 102.175 397.913 102.161L398.297 103.915C398.174 103.962 397.999 104.009 397.771 104.057C397.544 104.109 397.26 104.137 396.919 104.142C396.36 104.152 395.839 104.052 395.357 103.844C394.874 103.635 394.483 103.313 394.185 102.878C393.886 102.442 393.737 101.895 393.737 101.237V90.4773ZM405.987 88.7727L401.299 106.188H399.403L404.091 88.7727H405.987ZM419.701 89.4545V104H417.684L410.291 93.3324H410.156V104H407.961V89.4545H409.993L417.393 100.136H417.528V89.4545H419.701ZM434.453 95.804V97.6506H428.004V95.804H434.453ZM442.746 104V89.4545H451.766V91.3438H444.941V95.7756H451.12V97.6577H444.941V104H442.746ZM458.196 104.22C457.121 104.22 456.195 103.991 455.419 103.531C454.647 103.067 454.05 102.416 453.629 101.578C453.212 100.735 453.004 99.7481 453.004 98.6165C453.004 97.4991 453.212 96.5142 453.629 95.6619C454.05 94.8097 454.637 94.1444 455.39 93.6662C456.148 93.188 457.033 92.9489 458.047 92.9489C458.662 92.9489 459.259 93.0507 459.836 93.2543C460.414 93.4579 460.932 93.7775 461.392 94.2131C461.851 94.6487 462.213 95.2145 462.478 95.9105C462.743 96.6018 462.876 97.4422 462.876 98.4318V99.1847H454.204V97.5938H460.795C460.795 97.035 460.681 96.5402 460.454 96.1094C460.227 95.6738 459.907 95.3305 459.495 95.0795C459.088 94.8286 458.61 94.7031 458.061 94.7031C457.464 94.7031 456.943 94.8499 456.498 95.1435C456.058 95.4323 455.717 95.8111 455.475 96.2798C455.239 96.7438 455.12 97.2481 455.12 97.7926V99.0355C455.12 99.7647 455.248 100.385 455.504 100.896C455.764 101.408 456.127 101.798 456.591 102.068C457.055 102.333 457.597 102.466 458.217 102.466C458.619 102.466 458.986 102.409 459.318 102.295C459.649 102.177 459.936 102.002 460.177 101.77C460.419 101.538 460.603 101.251 460.731 100.911L462.741 101.273C462.58 101.865 462.291 102.383 461.875 102.828C461.463 103.268 460.944 103.612 460.319 103.858C459.699 104.099 458.991 104.22 458.196 104.22ZM469.934 104.22C468.859 104.22 467.933 103.991 467.157 103.531C466.385 103.067 465.789 102.416 465.367 101.578C464.951 100.735 464.742 99.7481 464.742 98.6165C464.742 97.4991 464.951 96.5142 465.367 95.6619C465.789 94.8097 466.376 94.1444 467.129 93.6662C467.886 93.188 468.772 92.9489 469.785 92.9489C470.4 92.9489 470.997 93.0507 471.575 93.2543C472.152 93.4579 472.671 93.7775 473.13 94.2131C473.589 94.6487 473.951 95.2145 474.217 95.9105C474.482 96.6018 474.614 97.4422 474.614 98.4318V99.1847H465.942V97.5938H472.533C472.533 97.035 472.42 96.5402 472.192 96.1094C471.965 95.6738 471.646 95.3305 471.234 95.0795C470.826 94.8286 470.348 94.7031 469.799 94.7031C469.202 94.7031 468.682 94.8499 468.237 95.1435C467.796 95.4323 467.455 95.8111 467.214 96.2798C466.977 96.7438 466.859 97.2481 466.859 97.7926V99.0355C466.859 99.7647 466.987 100.385 467.242 100.896C467.503 101.408 467.865 101.798 468.329 102.068C468.793 102.333 469.335 102.466 469.955 102.466C470.358 102.466 470.725 102.409 471.056 102.295C471.388 102.177 471.674 102.002 471.915 101.77C472.157 101.538 472.342 101.251 472.469 100.911L474.479 101.273C474.318 101.865 474.03 102.383 473.613 102.828C473.201 103.268 472.683 103.612 472.058 103.858C471.437 104.099 470.729 104.22 469.934 104.22Z" fill="black"/>
<path d="M318.009 53.6364H322.523L328.568 68.392H328.807L334.852 53.6364H339.366V74H335.827V60.0099H335.638L330.01 73.9403H327.365L321.737 59.9801H321.548V74H318.009V53.6364ZM343.224 74V58.7273H346.824V74H343.224ZM345.034 56.5597C344.464 56.5597 343.973 56.3707 343.562 55.9929C343.152 55.6084 342.946 55.1477 342.946 54.6108C342.946 54.0672 343.152 53.6065 343.562 53.2287C343.973 52.8442 344.464 52.652 345.034 52.652C345.611 52.652 346.101 52.8442 346.506 53.2287C346.917 53.6065 347.122 54.0672 347.122 54.6108C347.122 55.1477 346.917 55.6084 346.506 55.9929C346.101 56.3707 345.611 56.5597 345.034 56.5597ZM356.193 74.2685C354.993 74.2685 353.919 73.9602 352.971 73.3438C352.023 72.7273 351.274 71.8324 350.724 70.6591C350.174 69.4858 349.899 68.0606 349.899 66.3835C349.899 64.6866 350.177 63.2547 350.734 62.0881C351.297 60.9148 352.056 60.0298 353.011 59.4332C353.966 58.83 355.029 58.5284 356.203 58.5284C357.098 58.5284 357.833 58.6809 358.41 58.9858C358.987 59.2841 359.444 59.6454 359.782 60.0696C360.12 60.4872 360.382 60.8816 360.568 61.2528H360.717V53.6364H364.326V74H360.787V71.5938H360.568C360.382 71.965 360.114 72.3594 359.762 72.777C359.411 73.188 358.947 73.5393 358.37 73.831C357.794 74.1226 357.068 74.2685 356.193 74.2685ZM357.197 71.3153C357.959 71.3153 358.609 71.1098 359.146 70.6989C359.683 70.2812 360.091 69.7012 360.369 68.9588C360.647 68.2164 360.787 67.3513 360.787 66.3636C360.787 65.3759 360.647 64.5175 360.369 63.7884C360.097 63.0592 359.693 62.4924 359.156 62.0881C358.626 61.6837 357.973 61.4815 357.197 61.4815C356.395 61.4815 355.725 61.6903 355.189 62.108C354.652 62.5256 354.247 63.1023 353.975 63.8381C353.704 64.5739 353.568 65.4157 353.568 66.3636C353.568 67.3182 353.704 68.17 353.975 68.919C354.254 69.6615 354.662 70.2481 355.199 70.679C355.742 71.1032 356.408 71.3153 357.197 71.3153ZM373.83 74.2685C372.63 74.2685 371.556 73.9602 370.608 73.3438C369.66 72.7273 368.911 71.8324 368.361 70.6591C367.811 69.4858 367.536 68.0606 367.536 66.3835C367.536 64.6866 367.814 63.2547 368.371 62.0881C368.934 60.9148 369.693 60.0298 370.648 59.4332C371.602 58.83 372.666 58.5284 373.839 58.5284C374.734 58.5284 375.47 58.6809 376.047 58.9858C376.624 59.2841 377.081 59.6454 377.419 60.0696C377.757 60.4872 378.019 60.8816 378.205 61.2528H378.354V53.6364H381.963V74H378.423V71.5938H378.205C378.019 71.965 377.75 72.3594 377.399 72.777C377.048 73.188 376.584 73.5393 376.007 73.831C375.43 74.1226 374.705 74.2685 373.83 74.2685ZM374.834 71.3153C375.596 71.3153 376.246 71.1098 376.783 70.6989C377.32 70.2812 377.727 69.7012 378.006 68.9588C378.284 68.2164 378.423 67.3513 378.423 66.3636C378.423 65.3759 378.284 64.5175 378.006 63.7884C377.734 63.0592 377.33 62.4924 376.793 62.0881C376.262 61.6837 375.609 61.4815 374.834 61.4815C374.032 61.4815 373.362 61.6903 372.825 62.108C372.288 62.5256 371.884 63.1023 371.612 63.8381C371.34 64.5739 371.205 65.4157 371.205 66.3636C371.205 67.3182 371.34 68.17 371.612 68.919C371.891 69.6615 372.298 70.2481 372.835 70.679C373.379 71.1032 374.045 71.3153 374.834 71.3153ZM389.398 53.6364V74H385.799V53.6364H389.398ZM399.861 74.2983C398.33 74.2983 397.007 73.9801 395.893 73.3438C394.786 72.7008 393.935 71.7926 393.338 70.6193C392.741 69.4394 392.443 68.0507 392.443 66.4531C392.443 64.8821 392.741 63.5033 393.338 62.3168C393.941 61.1236 394.783 60.1955 395.864 59.5327C396.944 58.8632 398.214 58.5284 399.672 58.5284C400.613 58.5284 401.501 58.6809 402.337 58.9858C403.179 59.2841 403.921 59.7481 404.564 60.3778C405.214 61.0076 405.724 61.8097 406.095 62.7841C406.466 63.7519 406.652 64.9053 406.652 66.2443V67.348H394.134V64.9219H403.202C403.195 64.2325 403.046 63.6193 402.754 63.0824C402.463 62.5388 402.055 62.1113 401.531 61.7997C401.014 61.4882 400.411 61.3324 399.722 61.3324C398.986 61.3324 398.339 61.5114 397.783 61.8693C397.226 62.2206 396.792 62.6847 396.48 63.2614C396.175 63.8314 396.019 64.4579 396.013 65.1406V67.2585C396.013 68.1468 396.175 68.9091 396.5 69.5455C396.825 70.1752 397.279 70.6591 397.862 70.9972C398.446 71.3286 399.128 71.4943 399.911 71.4943C400.434 71.4943 400.908 71.4214 401.332 71.2756C401.757 71.1231 402.125 70.901 402.436 70.6094C402.748 70.3177 402.983 69.9564 403.142 69.5256L406.503 69.9034C406.291 70.7917 405.886 71.5672 405.29 72.2301C404.7 72.8864 403.944 73.3968 403.023 73.7614C402.101 74.1193 401.047 74.2983 399.861 74.2983ZM409.697 74V58.7273H413.137V61.3224H413.316C413.635 60.4474 414.162 59.7647 414.897 59.2741C415.633 58.777 416.511 58.5284 417.532 58.5284C418.566 58.5284 419.438 58.7803 420.147 59.2841C420.863 59.7812 421.367 60.4607 421.659 61.3224H421.818C422.156 60.474 422.726 59.7978 423.528 59.294C424.337 58.7836 425.295 58.5284 426.402 58.5284C427.807 58.5284 428.954 58.9725 429.842 59.8608C430.73 60.7491 431.174 62.045 431.174 63.7486V74H427.565V64.3054C427.565 63.3575 427.313 62.6648 426.809 62.2273C426.306 61.7831 425.689 61.5611 424.96 61.5611C424.092 61.5611 423.412 61.8329 422.922 62.3764C422.438 62.9134 422.196 63.6127 422.196 64.4744V74H418.666V64.1562C418.666 63.3674 418.427 62.7377 417.95 62.267C417.479 61.7964 416.863 61.5611 416.1 61.5611C415.583 61.5611 415.113 61.6937 414.689 61.9588C414.264 62.2173 413.926 62.5852 413.674 63.0625C413.422 63.5331 413.297 64.0833 413.297 64.7131V74H409.697ZM439.221 74.3082C438.253 74.3082 437.381 74.1359 436.606 73.7912C435.837 73.4399 435.227 72.9228 434.776 72.2401C434.332 71.5573 434.11 70.7154 434.11 69.7145C434.11 68.8527 434.269 68.1402 434.587 67.5767C434.906 67.0133 435.34 66.5625 435.89 66.2244C436.44 65.8864 437.06 65.6312 437.749 65.4588C438.445 65.2798 439.165 65.1506 439.907 65.071C440.802 64.9782 441.528 64.8954 442.085 64.8224C442.641 64.7429 443.046 64.6236 443.298 64.4645C443.556 64.2988 443.685 64.0436 443.685 63.6989V63.6392C443.685 62.8902 443.463 62.3101 443.019 61.8991C442.575 61.4882 441.935 61.2827 441.1 61.2827C440.219 61.2827 439.519 61.4749 439.002 61.8594C438.492 62.2438 438.147 62.6979 437.968 63.2216L434.607 62.7443C434.872 61.8163 435.31 61.0407 435.92 60.4176C436.53 59.7879 437.275 59.3172 438.157 59.0057C439.039 58.6875 440.013 58.5284 441.08 58.5284C441.816 58.5284 442.549 58.6146 443.278 58.7869C444.007 58.9593 444.673 59.2443 445.276 59.642C445.879 60.0331 446.363 60.5668 446.728 61.2429C447.099 61.919 447.285 62.7642 447.285 63.7784V74H443.825V71.902H443.705C443.487 72.3262 443.178 72.724 442.781 73.0952C442.389 73.4598 441.896 73.7547 441.299 73.9801C440.709 74.1989 440.016 74.3082 439.221 74.3082ZM440.156 71.6634C440.878 71.6634 441.504 71.5208 442.035 71.2358C442.565 70.9441 442.973 70.5597 443.258 70.0824C443.549 69.6051 443.695 69.0848 443.695 68.5213V66.7216C443.583 66.8144 443.39 66.9006 443.119 66.9801C442.853 67.0597 442.555 67.1293 442.224 67.1889C441.892 67.2486 441.564 67.3016 441.239 67.348C440.915 67.3944 440.633 67.4342 440.394 67.4673C439.857 67.5402 439.377 67.6596 438.952 67.8253C438.528 67.991 438.193 68.223 437.948 68.5213C437.703 68.813 437.58 69.1908 437.58 69.6548C437.58 70.3177 437.822 70.8182 438.306 71.1562C438.79 71.4943 439.406 71.6634 440.156 71.6634ZM454.504 65.0511V74H450.904V58.7273H454.344V61.3224H454.523C454.875 60.4673 455.435 59.7879 456.204 59.2841C456.979 58.7803 457.937 58.5284 459.077 58.5284C460.131 58.5284 461.049 58.7538 461.832 59.2045C462.621 59.6553 463.23 60.3082 463.661 61.1634C464.099 62.0185 464.314 63.0559 464.308 64.2756V74H460.708V64.8324C460.708 63.8116 460.443 63.0128 459.913 62.4361C459.389 61.8594 458.663 61.571 457.735 61.571C457.105 61.571 456.545 61.7102 456.055 61.9886C455.571 62.2604 455.19 62.6548 454.911 63.1719C454.639 63.6889 454.504 64.3153 454.504 65.0511ZM483.155 53.6364V74H479.466V57.2259H479.347L474.584 60.2685V56.8878L479.645 53.6364H483.155Z" fill="black"/>
<rect x="302.5" y="264.5" width="194" height="123" rx="3.5" stroke="black" stroke-width="3"/>
<path d="M326.827 352H324.497L329.732 337.455H332.267L337.501 352H335.172L331.06 340.097H330.946L326.827 352ZM327.217 346.304H334.774V348.151H327.217V346.304ZM339.431 352V341.091H341.47V342.866H341.605C341.832 342.265 342.204 341.796 342.72 341.46C343.236 341.119 343.854 340.949 344.574 340.949C345.303 340.949 345.913 341.119 346.406 341.46C346.903 341.801 347.27 342.27 347.507 342.866H347.62C347.881 342.284 348.295 341.82 348.863 341.474C349.431 341.124 350.109 340.949 350.895 340.949C351.884 340.949 352.691 341.259 353.316 341.879C353.946 342.5 354.261 343.435 354.261 344.685V352H352.137V344.884C352.137 344.145 351.936 343.61 351.534 343.278C351.131 342.947 350.651 342.781 350.092 342.781C349.401 342.781 348.863 342.994 348.48 343.42C348.096 343.842 347.904 344.384 347.904 345.047V352H345.788V344.749C345.788 344.157 345.603 343.681 345.234 343.321C344.865 342.961 344.384 342.781 343.792 342.781C343.39 342.781 343.018 342.888 342.677 343.101C342.341 343.309 342.069 343.6 341.86 343.974C341.657 344.348 341.555 344.782 341.555 345.274V352H339.431ZM361.702 352.22C360.68 352.22 359.787 351.986 359.025 351.517C358.263 351.048 357.671 350.393 357.249 349.55C356.828 348.707 356.617 347.722 356.617 346.595C356.617 345.464 356.828 344.474 357.249 343.626C357.671 342.779 358.263 342.121 359.025 341.652C359.787 341.183 360.68 340.949 361.702 340.949C362.725 340.949 363.618 341.183 364.38 341.652C365.142 342.121 365.734 342.779 366.156 343.626C366.577 344.474 366.788 345.464 366.788 346.595C366.788 347.722 366.577 348.707 366.156 349.55C365.734 350.393 365.142 351.048 364.38 351.517C363.618 351.986 362.725 352.22 361.702 352.22ZM361.71 350.438C362.372 350.438 362.922 350.262 363.357 349.912C363.793 349.562 364.115 349.095 364.323 348.513C364.536 347.93 364.643 347.289 364.643 346.588C364.643 345.892 364.536 345.253 364.323 344.67C364.115 344.083 363.793 343.612 363.357 343.257C362.922 342.902 362.372 342.724 361.71 342.724C361.042 342.724 360.488 342.902 360.048 343.257C359.612 343.612 359.288 344.083 359.075 344.67C358.866 345.253 358.762 345.892 358.762 346.588C358.762 347.289 358.866 347.93 359.075 348.513C359.288 349.095 359.612 349.562 360.048 349.912C360.488 350.262 361.042 350.438 361.71 350.438ZM376.069 347.476V341.091H378.199V352H376.111V350.111H375.998C375.747 350.693 375.344 351.179 374.79 351.567C374.241 351.95 373.557 352.142 372.738 352.142C372.037 352.142 371.417 351.988 370.877 351.68C370.342 351.368 369.92 350.906 369.613 350.295C369.31 349.685 369.158 348.929 369.158 348.03V341.091H371.282V347.774C371.282 348.518 371.488 349.109 371.9 349.55C372.311 349.99 372.846 350.21 373.505 350.21C373.902 350.21 374.298 350.111 374.691 349.912C375.088 349.713 375.417 349.412 375.678 349.01C375.943 348.607 376.073 348.096 376.069 347.476ZM383.176 345.523V352H381.053V341.091H383.091V342.866H383.226C383.477 342.289 383.87 341.825 384.405 341.474C384.945 341.124 385.624 340.949 386.443 340.949C387.187 340.949 387.838 341.105 388.396 341.418C388.955 341.725 389.388 342.185 389.696 342.795C390.004 343.406 390.158 344.161 390.158 345.061V352H388.034V345.317C388.034 344.526 387.828 343.908 387.416 343.463C387.004 343.013 386.438 342.788 385.719 342.788C385.226 342.788 384.788 342.895 384.405 343.108C384.026 343.321 383.725 343.634 383.503 344.045C383.285 344.453 383.176 344.945 383.176 345.523ZM398.098 341.091V342.795H392.139V341.091H398.098ZM393.737 338.477H395.861V348.797C395.861 349.209 395.922 349.519 396.045 349.727C396.169 349.931 396.327 350.071 396.521 350.146C396.72 350.217 396.936 350.253 397.168 350.253C397.338 350.253 397.487 350.241 397.615 350.217C397.743 350.194 397.842 350.175 397.913 350.161L398.297 351.915C398.174 351.962 397.999 352.009 397.771 352.057C397.544 352.109 397.26 352.137 396.919 352.142C396.36 352.152 395.839 352.052 395.357 351.844C394.874 351.635 394.483 351.313 394.185 350.878C393.886 350.442 393.737 349.895 393.737 349.237V338.477ZM405.987 336.773L401.299 354.188H399.403L404.091 336.773H405.987ZM419.701 337.455V352H417.684L410.291 341.332H410.156V352H407.961V337.455H409.993L417.393 348.136H417.528V337.455H419.701ZM434.453 343.804V345.651H428.004V343.804H434.453ZM442.746 352V337.455H451.766V339.344H444.941V343.776H451.12V345.658H444.941V352H442.746ZM458.196 352.22C457.121 352.22 456.195 351.991 455.419 351.531C454.647 351.067 454.05 350.416 453.629 349.578C453.212 348.735 453.004 347.748 453.004 346.616C453.004 345.499 453.212 344.514 453.629 343.662C454.05 342.81 454.637 342.144 455.39 341.666C456.148 341.188 457.033 340.949 458.047 340.949C458.662 340.949 459.259 341.051 459.836 341.254C460.414 341.458 460.932 341.777 461.392 342.213C461.851 342.649 462.213 343.214 462.478 343.911C462.743 344.602 462.876 345.442 462.876 346.432V347.185H454.204V345.594H460.795C460.795 345.035 460.681 344.54 460.454 344.109C460.227 343.674 459.907 343.33 459.495 343.08C459.088 342.829 458.61 342.703 458.061 342.703C457.464 342.703 456.943 342.85 456.498 343.143C456.058 343.432 455.717 343.811 455.475 344.28C455.239 344.744 455.12 345.248 455.12 345.793V347.036C455.12 347.765 455.248 348.385 455.504 348.896C455.764 349.408 456.127 349.798 456.591 350.068C457.055 350.333 457.597 350.466 458.217 350.466C458.619 350.466 458.986 350.409 459.318 350.295C459.649 350.177 459.936 350.002 460.177 349.77C460.419 349.538 460.603 349.251 460.731 348.911L462.741 349.273C462.58 349.865 462.291 350.383 461.875 350.828C461.463 351.268 460.944 351.612 460.319 351.858C459.699 352.099 458.991 352.22 458.196 352.22ZM469.934 352.22C468.859 352.22 467.933 351.991 467.157 351.531C466.385 351.067 465.789 350.416 465.367 349.578C464.951 348.735 464.742 347.748 464.742 346.616C464.742 345.499 464.951 344.514 465.367 343.662C465.789 342.81 466.376 342.144 467.129 341.666C467.886 341.188 468.772 340.949 469.785 340.949C470.4 340.949 470.997 341.051 471.575 341.254C472.152 341.458 472.671 341.777 473.13 342.213C473.589 342.649 473.951 343.214 474.217 343.911C474.482 344.602 474.614 345.442 474.614 346.432V347.185H465.942V345.594H472.533C472.533 345.035 472.42 344.54 472.192 344.109C471.965 343.674 471.646 343.33 471.234 343.08C470.826 342.829 470.348 342.703 469.799 342.703C469.202 342.703 468.682 342.85 468.237 343.143C467.796 343.432 467.455 343.811 467.214 344.28C466.977 344.744 466.859 345.248 466.859 345.793V347.036C466.859 347.765 466.987 348.385 467.242 348.896C467.503 349.408 467.865 349.798 468.329 350.068C468.793 350.333 469.335 350.466 469.955 350.466C470.358 350.466 470.725 350.409 471.056 350.295C471.388 350.177 471.674 350.002 471.915 349.77C472.157 349.538 472.342 349.251 472.469 348.911L474.479 349.273C474.318 349.865 474.03 350.383 473.613 350.828C473.201 351.268 472.683 351.612 472.058 351.858C471.437 352.099 470.729 352.22 469.934 352.22Z" fill="black"/>
<path d="M313.009 303.636H317.523L323.568 318.392H323.807L329.852 303.636H334.366V324H330.827V310.01H330.638L325.01 323.94H322.365L316.737 309.98H316.548V324H313.009V303.636ZM338.224 324V308.727H341.824V324H338.224ZM340.034 306.56C339.464 306.56 338.973 306.371 338.562 305.993C338.152 305.608 337.946 305.148 337.946 304.611C337.946 304.067 338.152 303.607 338.562 303.229C338.973 302.844 339.464 302.652 340.034 302.652C340.611 302.652 341.101 302.844 341.506 303.229C341.917 303.607 342.122 304.067 342.122 304.611C342.122 305.148 341.917 305.608 341.506 305.993C341.101 306.371 340.611 306.56 340.034 306.56ZM351.193 324.268C349.993 324.268 348.919 323.96 347.971 323.344C347.023 322.727 346.274 321.832 345.724 320.659C345.174 319.486 344.899 318.061 344.899 316.384C344.899 314.687 345.177 313.255 345.734 312.088C346.297 310.915 347.056 310.03 348.011 309.433C348.966 308.83 350.029 308.528 351.203 308.528C352.098 308.528 352.833 308.681 353.41 308.986C353.987 309.284 354.444 309.645 354.782 310.07C355.12 310.487 355.382 310.882 355.568 311.253H355.717V303.636H359.326V324H355.787V321.594H355.568C355.382 321.965 355.114 322.359 354.762 322.777C354.411 323.188 353.947 323.539 353.37 323.831C352.794 324.123 352.068 324.268 351.193 324.268ZM352.197 321.315C352.959 321.315 353.609 321.11 354.146 320.699C354.683 320.281 355.091 319.701 355.369 318.959C355.647 318.216 355.787 317.351 355.787 316.364C355.787 315.376 355.647 314.518 355.369 313.788C355.097 313.059 354.693 312.492 354.156 312.088C353.626 311.684 352.973 311.482 352.197 311.482C351.395 311.482 350.725 311.69 350.189 312.108C349.652 312.526 349.247 313.102 348.975 313.838C348.704 314.574 348.568 315.416 348.568 316.364C348.568 317.318 348.704 318.17 348.975 318.919C349.254 319.661 349.662 320.248 350.199 320.679C350.742 321.103 351.408 321.315 352.197 321.315ZM368.83 324.268C367.63 324.268 366.556 323.96 365.608 323.344C364.66 322.727 363.911 321.832 363.361 320.659C362.811 319.486 362.536 318.061 362.536 316.384C362.536 314.687 362.814 313.255 363.371 312.088C363.934 310.915 364.693 310.03 365.648 309.433C366.602 308.83 367.666 308.528 368.839 308.528C369.734 308.528 370.47 308.681 371.047 308.986C371.624 309.284 372.081 309.645 372.419 310.07C372.757 310.487 373.019 310.882 373.205 311.253H373.354V303.636H376.963V324H373.423V321.594H373.205C373.019 321.965 372.75 322.359 372.399 322.777C372.048 323.188 371.584 323.539 371.007 323.831C370.43 324.123 369.705 324.268 368.83 324.268ZM369.834 321.315C370.596 321.315 371.246 321.11 371.783 320.699C372.32 320.281 372.727 319.701 373.006 318.959C373.284 318.216 373.423 317.351 373.423 316.364C373.423 315.376 373.284 314.518 373.006 313.788C372.734 313.059 372.33 312.492 371.793 312.088C371.262 311.684 370.609 311.482 369.834 311.482C369.032 311.482 368.362 311.69 367.825 312.108C367.288 312.526 366.884 313.102 366.612 313.838C366.34 314.574 366.205 315.416 366.205 316.364C366.205 317.318 366.34 318.17 366.612 318.919C366.891 319.661 367.298 320.248 367.835 320.679C368.379 321.103 369.045 321.315 369.834 321.315ZM384.398 303.636V324H380.799V303.636H384.398ZM394.861 324.298C393.33 324.298 392.007 323.98 390.893 323.344C389.786 322.701 388.935 321.793 388.338 320.619C387.741 319.439 387.443 318.051 387.443 316.453C387.443 314.882 387.741 313.503 388.338 312.317C388.941 311.124 389.783 310.196 390.864 309.533C391.944 308.863 393.214 308.528 394.672 308.528C395.613 308.528 396.501 308.681 397.337 308.986C398.179 309.284 398.921 309.748 399.564 310.378C400.214 311.008 400.724 311.81 401.095 312.784C401.466 313.752 401.652 314.905 401.652 316.244V317.348H389.134V314.922H398.202C398.195 314.232 398.046 313.619 397.754 313.082C397.463 312.539 397.055 312.111 396.531 311.8C396.014 311.488 395.411 311.332 394.722 311.332C393.986 311.332 393.339 311.511 392.783 311.869C392.226 312.221 391.792 312.685 391.48 313.261C391.175 313.831 391.019 314.458 391.013 315.141V317.259C391.013 318.147 391.175 318.909 391.5 319.545C391.825 320.175 392.279 320.659 392.862 320.997C393.446 321.329 394.128 321.494 394.911 321.494C395.434 321.494 395.908 321.421 396.332 321.276C396.757 321.123 397.125 320.901 397.436 320.609C397.748 320.318 397.983 319.956 398.142 319.526L401.503 319.903C401.291 320.792 400.886 321.567 400.29 322.23C399.7 322.886 398.944 323.397 398.023 323.761C397.101 324.119 396.047 324.298 394.861 324.298ZM404.697 324V308.727H408.137V311.322H408.316C408.635 310.447 409.162 309.765 409.897 309.274C410.633 308.777 411.511 308.528 412.532 308.528C413.566 308.528 414.438 308.78 415.147 309.284C415.863 309.781 416.367 310.461 416.659 311.322H416.818C417.156 310.474 417.726 309.798 418.528 309.294C419.337 308.784 420.295 308.528 421.402 308.528C422.807 308.528 423.954 308.973 424.842 309.861C425.73 310.749 426.174 312.045 426.174 313.749V324H422.565V314.305C422.565 313.357 422.313 312.665 421.809 312.227C421.306 311.783 420.689 311.561 419.96 311.561C419.092 311.561 418.412 311.833 417.922 312.376C417.438 312.913 417.196 313.613 417.196 314.474V324H413.666V314.156C413.666 313.367 413.427 312.738 412.95 312.267C412.479 311.796 411.863 311.561 411.1 311.561C410.583 311.561 410.113 311.694 409.689 311.959C409.264 312.217 408.926 312.585 408.674 313.062C408.422 313.533 408.297 314.083 408.297 314.713V324H404.697ZM434.221 324.308C433.253 324.308 432.381 324.136 431.606 323.791C430.837 323.44 430.227 322.923 429.776 322.24C429.332 321.557 429.11 320.715 429.11 319.714C429.11 318.853 429.269 318.14 429.587 317.577C429.906 317.013 430.34 316.562 430.89 316.224C431.44 315.886 432.06 315.631 432.749 315.459C433.445 315.28 434.165 315.151 434.907 315.071C435.802 314.978 436.528 314.895 437.085 314.822C437.641 314.743 438.046 314.624 438.298 314.464C438.556 314.299 438.685 314.044 438.685 313.699V313.639C438.685 312.89 438.463 312.31 438.019 311.899C437.575 311.488 436.935 311.283 436.1 311.283C435.219 311.283 434.519 311.475 434.002 311.859C433.492 312.244 433.147 312.698 432.968 313.222L429.607 312.744C429.872 311.816 430.31 311.041 430.92 310.418C431.53 309.788 432.275 309.317 433.157 309.006C434.039 308.688 435.013 308.528 436.08 308.528C436.816 308.528 437.549 308.615 438.278 308.787C439.007 308.959 439.673 309.244 440.276 309.642C440.879 310.033 441.363 310.567 441.728 311.243C442.099 311.919 442.285 312.764 442.285 313.778V324H438.825V321.902H438.705C438.487 322.326 438.178 322.724 437.781 323.095C437.389 323.46 436.896 323.755 436.299 323.98C435.709 324.199 435.016 324.308 434.221 324.308ZM435.156 321.663C435.878 321.663 436.504 321.521 437.035 321.236C437.565 320.944 437.973 320.56 438.258 320.082C438.549 319.605 438.695 319.085 438.695 318.521V316.722C438.583 316.814 438.39 316.901 438.119 316.98C437.853 317.06 437.555 317.129 437.224 317.189C436.892 317.249 436.564 317.302 436.239 317.348C435.915 317.394 435.633 317.434 435.394 317.467C434.857 317.54 434.377 317.66 433.952 317.825C433.528 317.991 433.193 318.223 432.948 318.521C432.703 318.813 432.58 319.191 432.58 319.655C432.58 320.318 432.822 320.818 433.306 321.156C433.79 321.494 434.406 321.663 435.156 321.663ZM449.504 315.051V324H445.904V308.727H449.344V311.322H449.523C449.875 310.467 450.435 309.788 451.204 309.284C451.979 308.78 452.937 308.528 454.077 308.528C455.131 308.528 456.049 308.754 456.832 309.205C457.621 309.655 458.23 310.308 458.661 311.163C459.099 312.018 459.314 313.056 459.308 314.276V324H455.708V314.832C455.708 313.812 455.443 313.013 454.913 312.436C454.389 311.859 453.663 311.571 452.735 311.571C452.105 311.571 451.545 311.71 451.055 311.989C450.571 312.26 450.19 312.655 449.911 313.172C449.639 313.689 449.504 314.315 449.504 315.051ZM486.805 303.636V324H483.524L473.929 310.129H473.76V324H470.071V303.636H473.372L482.957 317.517H483.136V303.636H486.805Z" fill="black"/>
<path d="M399.229 156.281C398.453 156.281 397.788 156.009 397.234 155.463C396.68 154.918 396.408 154.253 396.416 153.469C396.408 152.702 396.68 152.045 397.234 151.5C397.788 150.955 398.453 150.682 399.229 150.682C399.979 150.682 400.631 150.955 401.185 151.5C401.747 152.045 402.033 152.702 402.041 153.469C402.033 153.989 401.896 154.462 401.632 154.888C401.376 155.314 401.036 155.655 400.609 155.911C400.192 156.158 399.732 156.281 399.229 156.281ZM399.229 200.281C398.453 200.281 397.788 200.009 397.234 199.463C396.68 198.918 396.408 198.253 396.416 197.469C396.408 196.702 396.68 196.045 397.234 195.5C397.788 194.955 398.453 194.682 399.229 194.682C399.979 194.682 400.631 194.955 401.185 195.5C401.747 196.045 402.033 196.702 402.041 197.469C402.033 197.989 401.896 198.462 401.632 198.888C401.376 199.314 401.036 199.655 400.609 199.911C400.192 200.158 399.732 200.281 399.229 200.281ZM399.229 244.281C398.453 244.281 397.788 244.009 397.234 243.463C396.68 242.918 396.408 242.253 396.416 241.469C396.408 240.702 396.68 240.045 397.234 239.5C397.788 238.955 398.453 238.682 399.229 238.682C399.979 238.682 400.631 238.955 401.185 239.5C401.747 240.045 402.033 240.702 402.041 241.469C402.033 241.989 401.896 242.462 401.632 242.888C401.376 243.314 401.036 243.655 400.609 243.911C400.192 244.158 399.732 244.281 399.229 244.281Z" fill="black"/>
<path d="M223 196H263" stroke="black" stroke-width="3"/>
<path d="M537 196H577" stroke="black" stroke-width="3"/>
<path d="M263 74H303" stroke="black" stroke-width="3"/>
<path d="M498 75H538" stroke="black" stroke-width="3"/>
<path d="M263 318H303" stroke="black" stroke-width="3"/>
<path d="M498 318H538" stroke="black" stroke-width="3"/>
<path d="M263 74V196" stroke="black" stroke-width="3"/>
<path d="M263 196V318" stroke="black" stroke-width="3"/>
<path d="M537 75V197" stroke="black" stroke-width="3"/>
<path d="M537 197V319" stroke="black" stroke-width="3"/>
</svg>
